%TF.GenerationSoftware,KiCad,Pcbnew,5.99.0-unknown-c5e195bdff~131~ubuntu20.04.1*%
%TF.CreationDate,2021-08-04T16:13:58-04:00*%
%TF.ProjectId,openlst-hw,6f70656e-6c73-4742-9d68-772e6b696361,rev?*%
%TF.SameCoordinates,Original*%
%TF.FileFunction,Legend,Top*%
%TF.FilePolarity,Positive*%
%FSLAX46Y46*%
G04 Gerber Fmt 4.6, Leading zero omitted, Abs format (unit mm)*
G04 Created by KiCad (PCBNEW 5.99.0-unknown-c5e195bdff~131~ubuntu20.04.1) date 2021-08-04 16:13:58*
%MOMM*%
%LPD*%
G01*
G04 APERTURE LIST*
%ADD10C,0.300000*%
%ADD11C,0.200000*%
%ADD12C,0.120000*%
%ADD13C,0.150000*%
%ADD14C,0.100000*%
%ADD15C,0.250000*%
%ADD16C,0.127000*%
G04 APERTURE END LIST*
D10*
X178228571Y-112114285D02*
X178228571Y-111828571D01*
X178300000Y-111685714D01*
X178442857Y-111542857D01*
X178728571Y-111471428D01*
X179228571Y-111471428D01*
X179514285Y-111542857D01*
X179657142Y-111685714D01*
X179728571Y-111828571D01*
X179728571Y-112114285D01*
X179657142Y-112257142D01*
X179514285Y-112400000D01*
X179228571Y-112471428D01*
X178728571Y-112471428D01*
X178442857Y-112400000D01*
X178300000Y-112257142D01*
X178228571Y-112114285D01*
X178728571Y-110828571D02*
X180228571Y-110828571D01*
X178800000Y-110828571D02*
X178728571Y-110685714D01*
X178728571Y-110400000D01*
X178800000Y-110257142D01*
X178871428Y-110185714D01*
X179014285Y-110114285D01*
X179442857Y-110114285D01*
X179585714Y-110185714D01*
X179657142Y-110257142D01*
X179728571Y-110400000D01*
X179728571Y-110685714D01*
X179657142Y-110828571D01*
X179657142Y-108900000D02*
X179728571Y-109042857D01*
X179728571Y-109328571D01*
X179657142Y-109471428D01*
X179514285Y-109542857D01*
X178942857Y-109542857D01*
X178800000Y-109471428D01*
X178728571Y-109328571D01*
X178728571Y-109042857D01*
X178800000Y-108900000D01*
X178942857Y-108828571D01*
X179085714Y-108828571D01*
X179228571Y-109542857D01*
X178728571Y-108185714D02*
X179728571Y-108185714D01*
X178871428Y-108185714D02*
X178800000Y-108114285D01*
X178728571Y-107971428D01*
X178728571Y-107757142D01*
X178800000Y-107614285D01*
X178942857Y-107542857D01*
X179728571Y-107542857D01*
X179728571Y-106114285D02*
X179728571Y-106828571D01*
X178228571Y-106828571D01*
X179657142Y-105685714D02*
X179728571Y-105471428D01*
X179728571Y-105114285D01*
X179657142Y-104971428D01*
X179585714Y-104900000D01*
X179442857Y-104828571D01*
X179300000Y-104828571D01*
X179157142Y-104900000D01*
X179085714Y-104971428D01*
X179014285Y-105114285D01*
X178942857Y-105400000D01*
X178871428Y-105542857D01*
X178800000Y-105614285D01*
X178657142Y-105685714D01*
X178514285Y-105685714D01*
X178371428Y-105614285D01*
X178300000Y-105542857D01*
X178228571Y-105400000D01*
X178228571Y-105042857D01*
X178300000Y-104828571D01*
X178228571Y-104400000D02*
X178228571Y-103542857D01*
X179728571Y-103971428D02*
X178228571Y-103971428D01*
X178728571Y-102042857D02*
X179728571Y-101685714D01*
X178728571Y-101328571D01*
X178371428Y-100828571D02*
X178300000Y-100757142D01*
X178228571Y-100614285D01*
X178228571Y-100257142D01*
X178300000Y-100114285D01*
X178371428Y-100042857D01*
X178514285Y-99971428D01*
X178657142Y-99971428D01*
X178871428Y-100042857D01*
X179728571Y-100900000D01*
X179728571Y-99971428D01*
X179585714Y-99328571D02*
X179657142Y-99257142D01*
X179728571Y-99328571D01*
X179657142Y-99400000D01*
X179585714Y-99328571D01*
X179728571Y-99328571D01*
X178228571Y-97900000D02*
X178228571Y-98614285D01*
X178942857Y-98685714D01*
X178871428Y-98614285D01*
X178800000Y-98471428D01*
X178800000Y-98114285D01*
X178871428Y-97971428D01*
X178942857Y-97900000D01*
X179085714Y-97828571D01*
X179442857Y-97828571D01*
X179585714Y-97900000D01*
X179657142Y-97971428D01*
X179728571Y-98114285D01*
X179728571Y-98471428D01*
X179657142Y-98614285D01*
X179585714Y-98685714D01*
D11*
X148636476Y-103328571D02*
X148779333Y-103376190D01*
X148826952Y-103423809D01*
X148874571Y-103519047D01*
X148874571Y-103661904D01*
X148826952Y-103757142D01*
X148779333Y-103804761D01*
X148684095Y-103852380D01*
X148303143Y-103852380D01*
X148303143Y-102852380D01*
X148636476Y-102852380D01*
X148731714Y-102900000D01*
X148779333Y-102947619D01*
X148826952Y-103042857D01*
X148826952Y-103138095D01*
X148779333Y-103233333D01*
X148731714Y-103280952D01*
X148636476Y-103328571D01*
X148303143Y-103328571D01*
X149255524Y-103566666D02*
X149731714Y-103566666D01*
X149160285Y-103852380D02*
X149493619Y-102852380D01*
X149826952Y-103852380D01*
X150017428Y-102852380D02*
X150588857Y-102852380D01*
X150303143Y-103852380D02*
X150303143Y-102852380D01*
X150779333Y-102852380D02*
X151350762Y-102852380D01*
X151065047Y-103852380D02*
X151065047Y-102852380D01*
X154073095Y-102900000D02*
X153977857Y-102852380D01*
X153835000Y-102852380D01*
X153692142Y-102900000D01*
X153596904Y-102995238D01*
X153549285Y-103090476D01*
X153501666Y-103280952D01*
X153501666Y-103423809D01*
X153549285Y-103614285D01*
X153596904Y-103709523D01*
X153692142Y-103804761D01*
X153835000Y-103852380D01*
X153930238Y-103852380D01*
X154073095Y-103804761D01*
X154120714Y-103757142D01*
X154120714Y-103423809D01*
X153930238Y-103423809D01*
X154549285Y-103852380D02*
X154549285Y-102852380D01*
X155120714Y-103852380D01*
X155120714Y-102852380D01*
X155596904Y-103852380D02*
X155596904Y-102852380D01*
X155835000Y-102852380D01*
X155977857Y-102900000D01*
X156073095Y-102995238D01*
X156120714Y-103090476D01*
X156168333Y-103280952D01*
X156168333Y-103423809D01*
X156120714Y-103614285D01*
X156073095Y-103709523D01*
X155977857Y-103804761D01*
X155835000Y-103852380D01*
X155596904Y-103852380D01*
%TO.C,kibuzzard-610AEA01*%
G36*
X164171698Y-79340836D02*
G01*
X164171698Y-78694063D01*
X164510100Y-78694063D01*
X164541850Y-78742878D01*
X164714887Y-78893691D01*
X164541850Y-79044503D01*
X164510100Y-79093319D01*
X164537881Y-79144913D01*
X164586300Y-79175472D01*
X164637100Y-79148484D01*
X164812519Y-78988941D01*
X164987938Y-79148484D01*
X165037944Y-79175472D01*
X165087156Y-79144516D01*
X165114938Y-79093319D01*
X165083188Y-79044503D01*
X164910150Y-78893691D01*
X165083188Y-78742878D01*
X165114938Y-78694063D01*
X165086759Y-78642072D01*
X165037944Y-78611116D01*
X164987938Y-78638897D01*
X164812519Y-78798441D01*
X164637100Y-78638897D01*
X164586300Y-78611116D01*
X164538278Y-78642469D01*
X164510100Y-78694063D01*
X164171698Y-78694063D01*
X164171698Y-78308697D01*
X164518037Y-78308697D01*
X164522800Y-78348384D01*
X164539072Y-78369419D01*
X164559312Y-78376563D01*
X164586300Y-78377753D01*
X164985556Y-78377753D01*
X164985556Y-78529359D01*
X164992700Y-78569841D01*
X165009766Y-78583334D01*
X165042706Y-78587303D01*
X165076044Y-78583334D01*
X165094697Y-78567459D01*
X165100650Y-78530153D01*
X165100650Y-78088828D01*
X165093506Y-78048347D01*
X165076441Y-78034853D01*
X165043500Y-78030884D01*
X165010163Y-78034853D01*
X164991509Y-78050728D01*
X164985556Y-78088034D01*
X164985556Y-78240434D01*
X164587094Y-78240434D01*
X164559709Y-78241625D01*
X164539072Y-78248769D01*
X164522800Y-78269406D01*
X164518037Y-78308697D01*
X164171698Y-78308697D01*
X164171698Y-77423666D01*
X164337062Y-77423666D01*
X164337062Y-77957859D01*
X164343412Y-77991991D01*
X164360081Y-78003500D01*
X164391434Y-78007072D01*
X164422787Y-78003103D01*
X164446600Y-77958653D01*
X164446600Y-77424459D01*
X164440250Y-77390328D01*
X164423581Y-77378819D01*
X164391831Y-77375247D01*
X164360081Y-77379216D01*
X164337062Y-77423666D01*
X164171698Y-77423666D01*
X164171698Y-76773584D01*
X164518831Y-76773584D01*
X164524189Y-76814066D01*
X164540262Y-76835497D01*
X164560503Y-76843037D01*
X164587887Y-76844228D01*
X164855381Y-76844228D01*
X164835637Y-76858912D01*
X164785928Y-76895028D01*
X164732449Y-76934120D01*
X164701394Y-76957734D01*
X164692662Y-76964084D01*
X164676391Y-76985119D01*
X164668056Y-77017662D01*
X164677184Y-77051000D01*
X164691472Y-77070447D01*
X164710125Y-77084734D01*
X164733640Y-77101998D01*
X164777197Y-77133153D01*
X164823532Y-77166689D01*
X164855381Y-77191097D01*
X164589475Y-77191097D01*
X164548200Y-77195066D01*
X164532325Y-77206178D01*
X164522800Y-77226816D01*
X164518831Y-77263328D01*
X164523594Y-77301428D01*
X164544430Y-77324050D01*
X164587887Y-77331591D01*
X165028419Y-77331591D01*
X165056200Y-77330400D01*
X165077631Y-77322859D01*
X165093705Y-77301924D01*
X165099063Y-77261344D01*
X165093705Y-77220168D01*
X165077631Y-77197447D01*
X165049914Y-77175762D01*
X165012480Y-77146901D01*
X164965332Y-77110865D01*
X164908467Y-77067653D01*
X164841888Y-77017266D01*
X165078425Y-76837084D01*
X165083188Y-76832322D01*
X165093903Y-76812081D01*
X165099063Y-76775172D01*
X165093903Y-76734691D01*
X165078425Y-76713259D01*
X165057391Y-76705719D01*
X165030006Y-76704528D01*
X164589475Y-76704528D01*
X164560900Y-76705719D01*
X164540262Y-76713259D01*
X164524189Y-76734294D01*
X164518831Y-76773584D01*
X164171698Y-76773584D01*
X164171698Y-76539164D01*
X165280302Y-76539164D01*
X165280302Y-79340836D01*
X164171698Y-79340836D01*
G37*
%TO.C,kibuzzard-610AE9EB*%
G36*
X166711698Y-79301149D02*
G01*
X166711698Y-78654375D01*
X167050100Y-78654375D01*
X167081850Y-78703191D01*
X167254887Y-78854003D01*
X167081850Y-79004816D01*
X167050100Y-79053631D01*
X167077881Y-79105225D01*
X167126300Y-79135784D01*
X167177100Y-79108797D01*
X167352519Y-78949253D01*
X167527938Y-79108797D01*
X167577944Y-79135784D01*
X167627156Y-79104828D01*
X167654938Y-79053631D01*
X167623188Y-79004816D01*
X167450150Y-78854003D01*
X167623188Y-78703191D01*
X167654938Y-78654375D01*
X167626759Y-78602384D01*
X167577944Y-78571428D01*
X167527938Y-78599209D01*
X167352519Y-78758753D01*
X167177100Y-78599209D01*
X167126300Y-78571428D01*
X167078278Y-78602781D01*
X167050100Y-78654375D01*
X166711698Y-78654375D01*
X166711698Y-78457525D01*
X167053275Y-78457525D01*
X167064387Y-78498403D01*
X167087406Y-78535313D01*
X167115187Y-78547616D01*
X167156462Y-78535709D01*
X167206998Y-78513484D01*
X167248537Y-78495493D01*
X167281081Y-78481734D01*
X167323238Y-78514807D01*
X167372451Y-78534651D01*
X167428719Y-78541266D01*
X167477931Y-78536106D01*
X167522381Y-78520628D01*
X167560084Y-78497213D01*
X167589056Y-78468241D01*
X167617278Y-78423879D01*
X167634212Y-78378635D01*
X167639856Y-78332509D01*
X167639856Y-78161059D01*
X167634498Y-78120181D01*
X167618425Y-78099147D01*
X167597391Y-78091606D01*
X167570006Y-78090416D01*
X167129475Y-78090416D01*
X167088200Y-78095178D01*
X167066173Y-78116213D01*
X167058831Y-78160266D01*
X167064189Y-78201144D01*
X167080262Y-78222178D01*
X167101297Y-78229719D01*
X167128681Y-78230909D01*
X167218375Y-78230909D01*
X167218375Y-78330922D01*
X167219962Y-78355528D01*
X167146849Y-78386396D01*
X167098960Y-78407034D01*
X167076294Y-78417441D01*
X167060816Y-78432125D01*
X167053275Y-78457525D01*
X166711698Y-78457525D01*
X166711698Y-77463353D01*
X166877062Y-77463353D01*
X166877062Y-77997547D01*
X166883412Y-78031678D01*
X166900081Y-78043188D01*
X166931434Y-78046759D01*
X166962787Y-78042791D01*
X166986600Y-77998341D01*
X166986600Y-77464147D01*
X166980250Y-77430016D01*
X166963581Y-77418506D01*
X166931831Y-77414934D01*
X166900081Y-77418903D01*
X166877062Y-77463353D01*
X166711698Y-77463353D01*
X166711698Y-76813272D01*
X167058831Y-76813272D01*
X167064189Y-76853753D01*
X167080262Y-76875184D01*
X167100503Y-76882725D01*
X167127887Y-76883916D01*
X167395381Y-76883916D01*
X167375637Y-76898600D01*
X167325928Y-76934716D01*
X167272449Y-76973808D01*
X167241394Y-76997422D01*
X167232662Y-77003772D01*
X167216391Y-77024806D01*
X167208056Y-77057350D01*
X167217184Y-77090687D01*
X167231472Y-77110134D01*
X167250125Y-77124422D01*
X167273640Y-77141686D01*
X167317197Y-77172841D01*
X167363532Y-77206377D01*
X167395381Y-77230784D01*
X167129475Y-77230784D01*
X167088200Y-77234753D01*
X167072325Y-77245866D01*
X167062800Y-77266503D01*
X167058831Y-77303016D01*
X167063594Y-77341116D01*
X167084430Y-77363737D01*
X167127887Y-77371278D01*
X167568419Y-77371278D01*
X167596200Y-77370087D01*
X167617631Y-77362547D01*
X167633705Y-77341612D01*
X167639063Y-77301031D01*
X167633705Y-77259855D01*
X167617631Y-77237134D01*
X167589914Y-77215449D01*
X167552480Y-77186588D01*
X167505332Y-77150552D01*
X167448467Y-77107340D01*
X167381888Y-77056953D01*
X167618425Y-76876772D01*
X167623188Y-76872009D01*
X167633903Y-76851769D01*
X167639063Y-76814859D01*
X167633903Y-76774378D01*
X167618425Y-76752947D01*
X167597391Y-76745406D01*
X167570006Y-76744216D01*
X167129475Y-76744216D01*
X167100900Y-76745406D01*
X167080262Y-76752947D01*
X167064189Y-76773981D01*
X167058831Y-76813272D01*
X166711698Y-76813272D01*
X166711698Y-76578851D01*
X167820302Y-76578851D01*
X167820302Y-79301149D01*
X166711698Y-79301149D01*
G37*
G36*
X167499363Y-78330922D02*
G01*
X167481503Y-78378547D01*
X167428719Y-78401566D01*
X167376331Y-78378547D01*
X167358869Y-78332509D01*
X167358869Y-78230909D01*
X167499363Y-78230909D01*
X167499363Y-78330922D01*
G37*
%TO.C,kibuzzard-610AE73D*%
G36*
X169955225Y-78478163D02*
G01*
X169944410Y-78534618D01*
X169911966Y-78583334D01*
X169863448Y-78616970D01*
X169804412Y-78628181D01*
X169745576Y-78616672D01*
X169697653Y-78582144D01*
X169665804Y-78533328D01*
X169655187Y-78478956D01*
X169655187Y-78401963D01*
X169955225Y-78401963D01*
X169955225Y-78478163D01*
G37*
G36*
X170269161Y-78979657D02*
G01*
X170262460Y-79024835D01*
X170251362Y-79069139D01*
X170235975Y-79112141D01*
X170216448Y-79153429D01*
X170192968Y-79192603D01*
X170165761Y-79229288D01*
X170135089Y-79263129D01*
X170101248Y-79293800D01*
X170064564Y-79321007D01*
X170025389Y-79344488D01*
X169984102Y-79364015D01*
X169941099Y-79379402D01*
X169896795Y-79390499D01*
X169851617Y-79397201D01*
X169806000Y-79399442D01*
X169760383Y-79397201D01*
X169715205Y-79390499D01*
X169670901Y-79379402D01*
X169627898Y-79364015D01*
X169586611Y-79344488D01*
X169547436Y-79321007D01*
X169510752Y-79293800D01*
X169476911Y-79263129D01*
X169446239Y-79229288D01*
X169419032Y-79192603D01*
X169395552Y-79153429D01*
X169376025Y-79112141D01*
X169360638Y-79069139D01*
X169349540Y-79024835D01*
X169342839Y-78979657D01*
X169340598Y-78934040D01*
X169340598Y-78331319D01*
X169514694Y-78331319D01*
X169514694Y-78476575D01*
X169520101Y-78535040D01*
X169536323Y-78588990D01*
X169563361Y-78638426D01*
X169601212Y-78683347D01*
X169646630Y-78720678D01*
X169696363Y-78747343D01*
X169750413Y-78763342D01*
X169808778Y-78768675D01*
X169866920Y-78763218D01*
X169920300Y-78746847D01*
X169968917Y-78719562D01*
X170012772Y-78681363D01*
X170049061Y-78635970D01*
X170074982Y-78587105D01*
X170090535Y-78534767D01*
X170095719Y-78478956D01*
X170096513Y-78332113D01*
X170091155Y-78291234D01*
X170075081Y-78270200D01*
X170054444Y-78262659D01*
X170026663Y-78261469D01*
X169585337Y-78261469D01*
X169534537Y-78270994D01*
X169519655Y-78292028D01*
X169514694Y-78331319D01*
X169340598Y-78331319D01*
X169340598Y-77759025D01*
X169513900Y-77759025D01*
X169519258Y-77799903D01*
X169535331Y-77820938D01*
X169555969Y-77828478D01*
X169583750Y-77829669D01*
X169844894Y-77829669D01*
X169815966Y-77851850D01*
X169777866Y-77880822D01*
X169730594Y-77916584D01*
X169674149Y-77959138D01*
X169608533Y-78008483D01*
X169533744Y-78064619D01*
X169518662Y-78084463D01*
X169513900Y-78127325D01*
X169519258Y-78168203D01*
X169535331Y-78189238D01*
X169555969Y-78196778D01*
X169583750Y-78197969D01*
X170024281Y-78197969D01*
X170064763Y-78193206D01*
X170081431Y-78183284D01*
X170090956Y-78162647D01*
X170094925Y-78126134D01*
X170090163Y-78088431D01*
X170071509Y-78065809D01*
X170027456Y-78058269D01*
X169759169Y-78058269D01*
X169787810Y-78036397D01*
X169825050Y-78008351D01*
X169870889Y-77974131D01*
X169925327Y-77933738D01*
X169988364Y-77887172D01*
X170060000Y-77834431D01*
X170080638Y-77816175D01*
X170090559Y-77796728D01*
X170094925Y-77759025D01*
X170090163Y-77720131D01*
X170071509Y-77697509D01*
X170027456Y-77689969D01*
X169584544Y-77689969D01*
X169556762Y-77691159D01*
X169535331Y-77698700D01*
X169519258Y-77719338D01*
X169513900Y-77759025D01*
X169340598Y-77759025D01*
X169340598Y-77404219D01*
X169505962Y-77404219D01*
X169510279Y-77466727D01*
X169523227Y-77520900D01*
X169544807Y-77566739D01*
X169575019Y-77604244D01*
X169623437Y-77626469D01*
X169798062Y-77626469D01*
X169842513Y-77618531D01*
X169864738Y-77566144D01*
X169864738Y-77426444D01*
X169857594Y-77388344D01*
X169840131Y-77375247D01*
X169806397Y-77371675D01*
X169773059Y-77374850D01*
X169754406Y-77388344D01*
X169748056Y-77423269D01*
X169748056Y-77485975D01*
X169661537Y-77485975D01*
X169650822Y-77448867D01*
X169647250Y-77407394D01*
X169659255Y-77350244D01*
X169695272Y-77299444D01*
X169729580Y-77272985D01*
X169768473Y-77257110D01*
X169811953Y-77251819D01*
X169874064Y-77263527D01*
X169923078Y-77298650D01*
X169954927Y-77348855D01*
X169965544Y-77405806D01*
X169960087Y-77448669D01*
X169943716Y-77485181D01*
X169921888Y-77533600D01*
X169932405Y-77560389D01*
X169963956Y-77589956D01*
X170008803Y-77608213D01*
X170044125Y-77586781D01*
X170078521Y-77530072D01*
X170099158Y-77471070D01*
X170106038Y-77409775D01*
X170100754Y-77351434D01*
X170084904Y-77297063D01*
X170058487Y-77246659D01*
X170021503Y-77200225D01*
X169976631Y-77161331D01*
X169926551Y-77133550D01*
X169871261Y-77116881D01*
X169810763Y-77111325D01*
X169749966Y-77116782D01*
X169693784Y-77133153D01*
X169642215Y-77160438D01*
X169595259Y-77198638D01*
X169556192Y-77244229D01*
X169528287Y-77293689D01*
X169511544Y-77347019D01*
X169505962Y-77404219D01*
X169340598Y-77404219D01*
X169340598Y-76945960D01*
X169342839Y-76900343D01*
X169349540Y-76855165D01*
X169360638Y-76810861D01*
X169376025Y-76767859D01*
X169395552Y-76726571D01*
X169419032Y-76687397D01*
X169446239Y-76650712D01*
X169476911Y-76616871D01*
X169510752Y-76586200D01*
X169547436Y-76558993D01*
X169586611Y-76535512D01*
X169627898Y-76515985D01*
X169670901Y-76500598D01*
X169715205Y-76489501D01*
X169760383Y-76482799D01*
X169806000Y-76480558D01*
X169851617Y-76482799D01*
X169896795Y-76489501D01*
X169941099Y-76500598D01*
X169984102Y-76515985D01*
X170025389Y-76535512D01*
X170064564Y-76558993D01*
X170101248Y-76586200D01*
X170135089Y-76616871D01*
X170165761Y-76650712D01*
X170192968Y-76687397D01*
X170216448Y-76726571D01*
X170235975Y-76767859D01*
X170251362Y-76810861D01*
X170262460Y-76855165D01*
X170269161Y-76900343D01*
X170271402Y-76945960D01*
X170271402Y-78934040D01*
X170269161Y-78979657D01*
G37*
%TO.C,kibuzzard-610AE972*%
G36*
X143763250Y-95573355D02*
G01*
X143811569Y-95606097D01*
X143836925Y-95638376D01*
X143852139Y-95677005D01*
X143857210Y-95721984D01*
X143852183Y-95766875D01*
X143837102Y-95805240D01*
X143811966Y-95837078D01*
X143763944Y-95869225D01*
X143710366Y-95879941D01*
X143656689Y-95868927D01*
X143608369Y-95835888D01*
X143583014Y-95803564D01*
X143567800Y-95765332D01*
X143562729Y-95721191D01*
X143567756Y-95677049D01*
X143582837Y-95638817D01*
X143607973Y-95606494D01*
X143655994Y-95573454D01*
X143709573Y-95562441D01*
X143763250Y-95573355D01*
G37*
G36*
X141600932Y-95720000D02*
G01*
X141748304Y-95498941D01*
X142076829Y-95498941D01*
X142076829Y-95939472D01*
X142078019Y-95968047D01*
X142085560Y-95988684D01*
X142106594Y-96004758D01*
X142145885Y-96010116D01*
X142186366Y-96004758D01*
X142207798Y-95988684D01*
X142215338Y-95968444D01*
X142216529Y-95941059D01*
X142216529Y-95673566D01*
X142231213Y-95693310D01*
X142267329Y-95743019D01*
X142306421Y-95796498D01*
X142330035Y-95827553D01*
X142336385Y-95836284D01*
X142357419Y-95852556D01*
X142389963Y-95860891D01*
X142423301Y-95851763D01*
X142442748Y-95837475D01*
X142457035Y-95818822D01*
X142474299Y-95795307D01*
X142505454Y-95751750D01*
X142538990Y-95705415D01*
X142563398Y-95673566D01*
X142563398Y-95939472D01*
X142567366Y-95980747D01*
X142578479Y-95996622D01*
X142599116Y-96006147D01*
X142635629Y-96010116D01*
X142673729Y-96005353D01*
X142696351Y-95984517D01*
X142703891Y-95941059D01*
X142703891Y-95500528D01*
X142703823Y-95498941D01*
X142767391Y-95498941D01*
X142767391Y-95940266D01*
X142772154Y-95980747D01*
X142793188Y-96003369D01*
X142837241Y-96010909D01*
X142878119Y-96005552D01*
X142899154Y-95989478D01*
X142906694Y-95968841D01*
X142907885Y-95941059D01*
X142907885Y-95883513D01*
X142959479Y-95883513D01*
X142980116Y-95929153D01*
X142987260Y-95937884D01*
X143010279Y-95962094D01*
X143045998Y-95987097D01*
X143099973Y-96009719D01*
X143134302Y-96016565D01*
X143170616Y-96018847D01*
X143218330Y-96014173D01*
X143264102Y-96000150D01*
X143307935Y-95976778D01*
X143338098Y-95950882D01*
X143361910Y-95916056D01*
X143377388Y-95873690D01*
X143382548Y-95825172D01*
X143377487Y-95777646D01*
X143362307Y-95738256D01*
X143352409Y-95725159D01*
X143422235Y-95725159D01*
X143427518Y-95783401D01*
X143443369Y-95837475D01*
X143469786Y-95887382D01*
X143506769Y-95933122D01*
X143551294Y-95971321D01*
X143600333Y-95998606D01*
X143653886Y-96014977D01*
X143711954Y-96020434D01*
X143769898Y-96014903D01*
X143823079Y-95998309D01*
X143871498Y-95970651D01*
X143915154Y-95931931D01*
X143951269Y-95885348D01*
X143977066Y-95834102D01*
X143992544Y-95778192D01*
X143997704Y-95717619D01*
X143992296Y-95657269D01*
X143976074Y-95602029D01*
X143949037Y-95551899D01*
X143911185Y-95506878D01*
X143865991Y-95469721D01*
X143816927Y-95443180D01*
X143763994Y-95427255D01*
X143707191Y-95421947D01*
X143653216Y-95427503D01*
X143600829Y-95444172D01*
X143552212Y-95470564D01*
X143509548Y-95505291D01*
X143473829Y-95548848D01*
X143446048Y-95601731D01*
X143428188Y-95661362D01*
X143422235Y-95725159D01*
X143352409Y-95725159D01*
X143339586Y-95708193D01*
X143311904Y-95688647D01*
X143280352Y-95675451D01*
X143246023Y-95664437D01*
X143211693Y-95655805D01*
X143180141Y-95649753D01*
X143129738Y-95631497D01*
X143109498Y-95596175D01*
X143126563Y-95562044D01*
X143169426Y-95549741D01*
X143211891Y-95560059D01*
X143224194Y-95570378D01*
X143233323Y-95578316D01*
X143274598Y-95594191D01*
X143302776Y-95584269D01*
X143330160Y-95554503D01*
X143349210Y-95510847D01*
X143324604Y-95471953D01*
X143304760Y-95456872D01*
X143250388Y-95431869D01*
X143209014Y-95422641D01*
X143163473Y-95419566D01*
X143107866Y-95425342D01*
X143060638Y-95442673D01*
X143021788Y-95471556D01*
X142992905Y-95508201D01*
X142975574Y-95548815D01*
X142969798Y-95593397D01*
X142974858Y-95640526D01*
X142990038Y-95680312D01*
X143012759Y-95711566D01*
X143040441Y-95733097D01*
X143071794Y-95748674D01*
X143105529Y-95762069D01*
X143139263Y-95772685D01*
X143170616Y-95779928D01*
X143221019Y-95797788D01*
X143241260Y-95828347D01*
X143233058Y-95861861D01*
X143208452Y-95881969D01*
X143167441Y-95888672D01*
X143129341Y-95876369D01*
X143097591Y-95850572D01*
X143062269Y-95820806D01*
X143035679Y-95810884D01*
X142993610Y-95829934D01*
X142968012Y-95859998D01*
X142959479Y-95883513D01*
X142907885Y-95883513D01*
X142907885Y-95499734D01*
X142903916Y-95458459D01*
X142882287Y-95436433D01*
X142838035Y-95429091D01*
X142797157Y-95434448D01*
X142776123Y-95450522D01*
X142768582Y-95471556D01*
X142767391Y-95498941D01*
X142703823Y-95498941D01*
X142702701Y-95472747D01*
X142695160Y-95451316D01*
X142674225Y-95435242D01*
X142633644Y-95429884D01*
X142592469Y-95435242D01*
X142569748Y-95451316D01*
X142548062Y-95479033D01*
X142519202Y-95516467D01*
X142483165Y-95563615D01*
X142439954Y-95620480D01*
X142389566Y-95687059D01*
X142209385Y-95450522D01*
X142204623Y-95445759D01*
X142184382Y-95435044D01*
X142147473Y-95429884D01*
X142106991Y-95435044D01*
X142085560Y-95450522D01*
X142078019Y-95471556D01*
X142076829Y-95498941D01*
X141748304Y-95498941D01*
X141911464Y-95254201D01*
X144163068Y-95254201D01*
X144163068Y-96185799D01*
X141911464Y-96185799D01*
X141600932Y-95720000D01*
G37*
%TO.C,kibuzzard-610AE965*%
G36*
X143102453Y-93287355D02*
G01*
X143150773Y-93320097D01*
X143176128Y-93352376D01*
X143191342Y-93391005D01*
X143196413Y-93435984D01*
X143191386Y-93480875D01*
X143176305Y-93519240D01*
X143151169Y-93551078D01*
X143103148Y-93583225D01*
X143049569Y-93593941D01*
X142995892Y-93582927D01*
X142947573Y-93549888D01*
X142922217Y-93517564D01*
X142907003Y-93479332D01*
X142901932Y-93435191D01*
X142906959Y-93391049D01*
X142922040Y-93352817D01*
X142947176Y-93320494D01*
X142995198Y-93287454D01*
X143048776Y-93276441D01*
X143102453Y-93287355D01*
G37*
G36*
X144157115Y-93899799D02*
G01*
X141606885Y-93899799D01*
X141917417Y-93434000D01*
X141770045Y-93212941D01*
X142082782Y-93212941D01*
X142082782Y-93653472D01*
X142083973Y-93682047D01*
X142091513Y-93702684D01*
X142112548Y-93718758D01*
X142151838Y-93724116D01*
X142192319Y-93718758D01*
X142213751Y-93702684D01*
X142221291Y-93682444D01*
X142222482Y-93655059D01*
X142222482Y-93387566D01*
X142237166Y-93407310D01*
X142273282Y-93457019D01*
X142312374Y-93510498D01*
X142335988Y-93541553D01*
X142342338Y-93550284D01*
X142363373Y-93566556D01*
X142395916Y-93574891D01*
X142429254Y-93565763D01*
X142448701Y-93551475D01*
X142462988Y-93532822D01*
X142480252Y-93509307D01*
X142511407Y-93465750D01*
X142544943Y-93419415D01*
X142569351Y-93387566D01*
X142569351Y-93653472D01*
X142573319Y-93694747D01*
X142584432Y-93710622D01*
X142605069Y-93720147D01*
X142641582Y-93724116D01*
X142679682Y-93719353D01*
X142702304Y-93698517D01*
X142709844Y-93655059D01*
X142709844Y-93439159D01*
X142761438Y-93439159D01*
X142766722Y-93497401D01*
X142782572Y-93551475D01*
X142808989Y-93601382D01*
X142845973Y-93647122D01*
X142890497Y-93685321D01*
X142939536Y-93712606D01*
X142993089Y-93728977D01*
X143051157Y-93734434D01*
X143109101Y-93728903D01*
X143162282Y-93712309D01*
X143210701Y-93684651D01*
X143254357Y-93645931D01*
X143290473Y-93599348D01*
X143291397Y-93597513D01*
X143376594Y-93597513D01*
X143397232Y-93643153D01*
X143404376Y-93651884D01*
X143427394Y-93676094D01*
X143463113Y-93701097D01*
X143517088Y-93723719D01*
X143551418Y-93730565D01*
X143587732Y-93732847D01*
X143635445Y-93728173D01*
X143681218Y-93714150D01*
X143725051Y-93690778D01*
X143755213Y-93664882D01*
X143779026Y-93630056D01*
X143794504Y-93587690D01*
X143799663Y-93539172D01*
X143794603Y-93491646D01*
X143779423Y-93452256D01*
X143756701Y-93422193D01*
X143729019Y-93402647D01*
X143697468Y-93389451D01*
X143663138Y-93378437D01*
X143628809Y-93369805D01*
X143597257Y-93363753D01*
X143546854Y-93345497D01*
X143526613Y-93310175D01*
X143543679Y-93276044D01*
X143586541Y-93263741D01*
X143629007Y-93274059D01*
X143641310Y-93284378D01*
X143650438Y-93292316D01*
X143691713Y-93308191D01*
X143719891Y-93298269D01*
X143747276Y-93268503D01*
X143766326Y-93224847D01*
X143758793Y-93212941D01*
X143851257Y-93212941D01*
X143851257Y-93654266D01*
X143856019Y-93694747D01*
X143877054Y-93717369D01*
X143921107Y-93724909D01*
X143961985Y-93719552D01*
X143983019Y-93703478D01*
X143990560Y-93682841D01*
X143991751Y-93655059D01*
X143991751Y-93213734D01*
X143987782Y-93172459D01*
X143966152Y-93150433D01*
X143921901Y-93143091D01*
X143881023Y-93148448D01*
X143859988Y-93164522D01*
X143852448Y-93185556D01*
X143851257Y-93212941D01*
X143758793Y-93212941D01*
X143741719Y-93185953D01*
X143721876Y-93170872D01*
X143667504Y-93145869D01*
X143626130Y-93136641D01*
X143580588Y-93133566D01*
X143524982Y-93139342D01*
X143477753Y-93156673D01*
X143438904Y-93185556D01*
X143410020Y-93222201D01*
X143392690Y-93262815D01*
X143386913Y-93307397D01*
X143391973Y-93354526D01*
X143407154Y-93394312D01*
X143429875Y-93425566D01*
X143457557Y-93447097D01*
X143488910Y-93462674D01*
X143522644Y-93476069D01*
X143556379Y-93486685D01*
X143587732Y-93493928D01*
X143638135Y-93511788D01*
X143658376Y-93542347D01*
X143650174Y-93575861D01*
X143625567Y-93595969D01*
X143584557Y-93602672D01*
X143546457Y-93590369D01*
X143514707Y-93564572D01*
X143479385Y-93534806D01*
X143452794Y-93524884D01*
X143410726Y-93543934D01*
X143385127Y-93573998D01*
X143376594Y-93597513D01*
X143291397Y-93597513D01*
X143316269Y-93548102D01*
X143331748Y-93492192D01*
X143336907Y-93431619D01*
X143331500Y-93371269D01*
X143315277Y-93316029D01*
X143288240Y-93265899D01*
X143250388Y-93220878D01*
X143205194Y-93183721D01*
X143156130Y-93157180D01*
X143103197Y-93141255D01*
X143046394Y-93135947D01*
X142992419Y-93141503D01*
X142940032Y-93158172D01*
X142891415Y-93184564D01*
X142848751Y-93219291D01*
X142813032Y-93262848D01*
X142785251Y-93315731D01*
X142767391Y-93375362D01*
X142761438Y-93439159D01*
X142709844Y-93439159D01*
X142709844Y-93214528D01*
X142708654Y-93186747D01*
X142701113Y-93165316D01*
X142680178Y-93149242D01*
X142639598Y-93143884D01*
X142598422Y-93149242D01*
X142575701Y-93165316D01*
X142554015Y-93193033D01*
X142525155Y-93230467D01*
X142489118Y-93277615D01*
X142445907Y-93334480D01*
X142395519Y-93401059D01*
X142215338Y-93164522D01*
X142210576Y-93159759D01*
X142190335Y-93149044D01*
X142153426Y-93143884D01*
X142112944Y-93149044D01*
X142091513Y-93164522D01*
X142083973Y-93185556D01*
X142082782Y-93212941D01*
X141770045Y-93212941D01*
X141606885Y-92968201D01*
X144157115Y-92968201D01*
X144157115Y-93899799D01*
G37*
%TO.C,kibuzzard-610AE8E6*%
G36*
X143778011Y-90428995D02*
G01*
X143778011Y-91359005D01*
X141985989Y-91359005D01*
X141985989Y-91058306D01*
X142151353Y-91058306D01*
X142171991Y-91103947D01*
X142179134Y-91112678D01*
X142202153Y-91136888D01*
X142237872Y-91161891D01*
X142291847Y-91184513D01*
X142326177Y-91191359D01*
X142362491Y-91193641D01*
X142410204Y-91188966D01*
X142455977Y-91174943D01*
X142499809Y-91151572D01*
X142529972Y-91125676D01*
X142553784Y-91090850D01*
X142569262Y-91048484D01*
X142574422Y-90999966D01*
X142569362Y-90952440D01*
X142554181Y-90913050D01*
X142538284Y-90892016D01*
X142614109Y-90892016D01*
X142619368Y-90951646D01*
X142635144Y-91006713D01*
X142659055Y-91054734D01*
X142688722Y-91093231D01*
X142723349Y-91124386D01*
X142762144Y-91150381D01*
X142802427Y-91170423D01*
X142841519Y-91183719D01*
X142879817Y-91191160D01*
X142917719Y-91193641D01*
X142956116Y-91190466D01*
X142995903Y-91180941D01*
X143049481Y-91160303D01*
X143076866Y-91143634D01*
X143101869Y-91123791D01*
X143112584Y-91096009D01*
X143095122Y-91051559D01*
X143067539Y-91018222D01*
X143041941Y-91007109D01*
X143003841Y-91022984D01*
X142989553Y-91033303D01*
X142958200Y-91046003D01*
X142911766Y-91052353D01*
X142860370Y-91043622D01*
X142810959Y-91017428D01*
X142770478Y-90967422D01*
X142758572Y-90933588D01*
X142754603Y-90895588D01*
X142758572Y-90857587D01*
X142770478Y-90823753D01*
X142810166Y-90774541D01*
X142860569Y-90747752D01*
X142911766Y-90738822D01*
X142961772Y-90745569D01*
X143000666Y-90765809D01*
X143041147Y-90783272D01*
X143067341Y-90772556D01*
X143096709Y-90740409D01*
X143113378Y-90696356D01*
X143100996Y-90673734D01*
X143164972Y-90673734D01*
X143164972Y-91115059D01*
X143169734Y-91155541D01*
X143190769Y-91178163D01*
X143234822Y-91185703D01*
X143275700Y-91180345D01*
X143296734Y-91164272D01*
X143304275Y-91143634D01*
X143305466Y-91115853D01*
X143305466Y-90961072D01*
X143480091Y-91160303D01*
X143528906Y-91193641D01*
X143580897Y-91166256D01*
X143612647Y-91118631D01*
X143586453Y-91069022D01*
X143556638Y-91036032D01*
X143517992Y-90995798D01*
X143470516Y-90948322D01*
X143414209Y-90893603D01*
X143445959Y-90863441D01*
X143491203Y-90819487D01*
X143530097Y-90780494D01*
X143562641Y-90746462D01*
X143588834Y-90717391D01*
X143612647Y-90669369D01*
X143580897Y-90621744D01*
X143528509Y-90594359D01*
X143480091Y-90626903D01*
X143451770Y-90659764D01*
X143420147Y-90696118D01*
X143385222Y-90735964D01*
X143346995Y-90779303D01*
X143305466Y-90826134D01*
X143305466Y-90674528D01*
X143301497Y-90633253D01*
X143279867Y-90611227D01*
X143235616Y-90603884D01*
X143194738Y-90609242D01*
X143173703Y-90625316D01*
X143166163Y-90646350D01*
X143164972Y-90673734D01*
X143100996Y-90673734D01*
X143092741Y-90658653D01*
X143070516Y-90644366D01*
X143051466Y-90633253D01*
X142993125Y-90609837D01*
X142954926Y-90601205D01*
X142917322Y-90598328D01*
X142865023Y-90603091D01*
X142812900Y-90617378D01*
X142760953Y-90641191D01*
X142721960Y-90666095D01*
X142687531Y-90696356D01*
X142658262Y-90733662D01*
X142634747Y-90779700D01*
X142619269Y-90832980D01*
X142614109Y-90892016D01*
X142538284Y-90892016D01*
X142531460Y-90882987D01*
X142503778Y-90863441D01*
X142472227Y-90850245D01*
X142437897Y-90839231D01*
X142403567Y-90830599D01*
X142372016Y-90824547D01*
X142321612Y-90806291D01*
X142301372Y-90770969D01*
X142318437Y-90736837D01*
X142361300Y-90724534D01*
X142403766Y-90734853D01*
X142416069Y-90745172D01*
X142425197Y-90753109D01*
X142466472Y-90768984D01*
X142494650Y-90759062D01*
X142522034Y-90729297D01*
X142541084Y-90685641D01*
X142516478Y-90646747D01*
X142496634Y-90631666D01*
X142442262Y-90606662D01*
X142400888Y-90597435D01*
X142355347Y-90594359D01*
X142299740Y-90600136D01*
X142252512Y-90617466D01*
X142213662Y-90646350D01*
X142184779Y-90682995D01*
X142167449Y-90723608D01*
X142161672Y-90768191D01*
X142166732Y-90815320D01*
X142181912Y-90855106D01*
X142204634Y-90886360D01*
X142232316Y-90907891D01*
X142263669Y-90923468D01*
X142297403Y-90936863D01*
X142331137Y-90947479D01*
X142362491Y-90954722D01*
X142412894Y-90972581D01*
X142433134Y-91003141D01*
X142424932Y-91036655D01*
X142400326Y-91056763D01*
X142359316Y-91063466D01*
X142321216Y-91051163D01*
X142289466Y-91025366D01*
X142254144Y-90995600D01*
X142227553Y-90985678D01*
X142185484Y-91004728D01*
X142159886Y-91034791D01*
X142151353Y-91058306D01*
X141985989Y-91058306D01*
X141985989Y-90428995D01*
X143778011Y-90428995D01*
G37*
%TO.C,kibuzzard-610AE8D4*%
G36*
X143528377Y-86279005D02*
G01*
X142235623Y-86279005D01*
X142235623Y-85812016D01*
X142400987Y-85812016D01*
X142406246Y-85871646D01*
X142422022Y-85926713D01*
X142445934Y-85974734D01*
X142475600Y-86013231D01*
X142510227Y-86044386D01*
X142549022Y-86070381D01*
X142589305Y-86090423D01*
X142628397Y-86103719D01*
X142666695Y-86111160D01*
X142704597Y-86113641D01*
X142742995Y-86110466D01*
X142782781Y-86100941D01*
X142836359Y-86080303D01*
X142863744Y-86063634D01*
X142888747Y-86043791D01*
X142899463Y-86016009D01*
X142884651Y-85978306D01*
X142939944Y-85978306D01*
X142960581Y-86023947D01*
X142967725Y-86032678D01*
X142990744Y-86056888D01*
X143026463Y-86081891D01*
X143080438Y-86104513D01*
X143114767Y-86111359D01*
X143151081Y-86113641D01*
X143198794Y-86108966D01*
X143244567Y-86094943D01*
X143288400Y-86071572D01*
X143318563Y-86045676D01*
X143342375Y-86010850D01*
X143357853Y-85968484D01*
X143363013Y-85919966D01*
X143357952Y-85872440D01*
X143342772Y-85833050D01*
X143320051Y-85802987D01*
X143292369Y-85783441D01*
X143260817Y-85770245D01*
X143226488Y-85759231D01*
X143192158Y-85750599D01*
X143160606Y-85744547D01*
X143110203Y-85726291D01*
X143089963Y-85690969D01*
X143107028Y-85656837D01*
X143149891Y-85644534D01*
X143192356Y-85654853D01*
X143204659Y-85665172D01*
X143213788Y-85673109D01*
X143255063Y-85688984D01*
X143283241Y-85679062D01*
X143310625Y-85649297D01*
X143329675Y-85605641D01*
X143305069Y-85566747D01*
X143285225Y-85551666D01*
X143230853Y-85526662D01*
X143189479Y-85517435D01*
X143143938Y-85514359D01*
X143088331Y-85520136D01*
X143041103Y-85537466D01*
X143002253Y-85566350D01*
X142973369Y-85602995D01*
X142956039Y-85643608D01*
X142950263Y-85688191D01*
X142955323Y-85735320D01*
X142970503Y-85775106D01*
X142993224Y-85806360D01*
X143020906Y-85827891D01*
X143052259Y-85843468D01*
X143085994Y-85856863D01*
X143119728Y-85867479D01*
X143151081Y-85874722D01*
X143201484Y-85892581D01*
X143221725Y-85923141D01*
X143213523Y-85956655D01*
X143188917Y-85976763D01*
X143147906Y-85983466D01*
X143109806Y-85971163D01*
X143078056Y-85945366D01*
X143042734Y-85915600D01*
X143016144Y-85905678D01*
X142974075Y-85924728D01*
X142948477Y-85954791D01*
X142939944Y-85978306D01*
X142884651Y-85978306D01*
X142882000Y-85971559D01*
X142854417Y-85938222D01*
X142828819Y-85927109D01*
X142790719Y-85942984D01*
X142776431Y-85953303D01*
X142745078Y-85966003D01*
X142698644Y-85972353D01*
X142647248Y-85963622D01*
X142597837Y-85937428D01*
X142557356Y-85887422D01*
X142545450Y-85853588D01*
X142541481Y-85815588D01*
X142545450Y-85777587D01*
X142557356Y-85743753D01*
X142597044Y-85694541D01*
X142647447Y-85667752D01*
X142698644Y-85658822D01*
X142748650Y-85665569D01*
X142787544Y-85685809D01*
X142828025Y-85703272D01*
X142854219Y-85692556D01*
X142883588Y-85660409D01*
X142900256Y-85616356D01*
X142879619Y-85578653D01*
X142857394Y-85564366D01*
X142838344Y-85553253D01*
X142780003Y-85529837D01*
X142741804Y-85521205D01*
X142704200Y-85518328D01*
X142651901Y-85523091D01*
X142599778Y-85537378D01*
X142547831Y-85561191D01*
X142508838Y-85586095D01*
X142474409Y-85616356D01*
X142445140Y-85653662D01*
X142421625Y-85699700D01*
X142406147Y-85752980D01*
X142400987Y-85812016D01*
X142235623Y-85812016D01*
X142235623Y-85348995D01*
X143528377Y-85348995D01*
X143528377Y-86279005D01*
G37*
%TO.C,kibuzzard-610AE73D*%
G36*
X143476618Y-83135590D02*
G01*
X143525334Y-83168034D01*
X143558970Y-83216552D01*
X143570181Y-83275588D01*
X143558672Y-83334424D01*
X143524144Y-83382347D01*
X143475328Y-83414196D01*
X143420956Y-83424813D01*
X143343963Y-83424813D01*
X143343963Y-83124775D01*
X143420163Y-83124775D01*
X143476618Y-83135590D01*
G37*
G36*
X143921657Y-82810839D02*
G01*
X143966835Y-82817540D01*
X144011139Y-82828638D01*
X144054141Y-82844025D01*
X144095429Y-82863552D01*
X144134603Y-82887032D01*
X144171288Y-82914239D01*
X144205129Y-82944911D01*
X144235800Y-82978752D01*
X144263007Y-83015436D01*
X144286488Y-83054611D01*
X144306015Y-83095898D01*
X144321402Y-83138901D01*
X144332499Y-83183205D01*
X144339201Y-83228383D01*
X144341442Y-83274000D01*
X144339201Y-83319617D01*
X144332499Y-83364795D01*
X144321402Y-83409099D01*
X144306015Y-83452102D01*
X144286488Y-83493389D01*
X144263007Y-83532564D01*
X144235800Y-83569248D01*
X144205129Y-83603089D01*
X144171288Y-83633761D01*
X144134603Y-83660968D01*
X144095429Y-83684448D01*
X144054141Y-83703975D01*
X144011139Y-83719362D01*
X143966835Y-83730460D01*
X143921657Y-83737161D01*
X143876040Y-83739402D01*
X141887960Y-83739402D01*
X141842343Y-83737161D01*
X141797165Y-83730460D01*
X141752861Y-83719362D01*
X141709859Y-83703975D01*
X141668571Y-83684448D01*
X141629397Y-83660968D01*
X141592712Y-83633761D01*
X141558871Y-83603089D01*
X141528200Y-83569248D01*
X141500993Y-83532564D01*
X141477512Y-83493389D01*
X141457985Y-83452102D01*
X141442598Y-83409099D01*
X141431501Y-83364795D01*
X141424799Y-83319617D01*
X141422558Y-83274000D01*
X141422792Y-83269237D01*
X142053325Y-83269237D01*
X142058782Y-83330034D01*
X142075153Y-83386216D01*
X142102438Y-83437785D01*
X142140638Y-83484741D01*
X142186229Y-83523808D01*
X142235689Y-83551713D01*
X142289019Y-83568456D01*
X142346219Y-83574038D01*
X142408727Y-83569721D01*
X142462900Y-83556773D01*
X142508739Y-83535193D01*
X142546244Y-83504981D01*
X142568469Y-83456563D01*
X142568469Y-83281938D01*
X142560531Y-83237487D01*
X142508144Y-83215262D01*
X142368444Y-83215262D01*
X142330344Y-83222406D01*
X142317247Y-83239869D01*
X142313675Y-83273603D01*
X142316850Y-83306941D01*
X142330344Y-83325594D01*
X142365269Y-83331944D01*
X142427975Y-83331944D01*
X142427975Y-83418463D01*
X142390867Y-83429178D01*
X142349394Y-83432750D01*
X142292244Y-83420745D01*
X142241444Y-83384728D01*
X142214985Y-83350420D01*
X142199110Y-83311527D01*
X142193819Y-83268047D01*
X142205527Y-83205936D01*
X142240650Y-83156922D01*
X142290855Y-83125073D01*
X142347806Y-83114456D01*
X142390669Y-83119913D01*
X142427181Y-83136284D01*
X142475600Y-83158112D01*
X142502389Y-83147595D01*
X142531956Y-83116044D01*
X142550213Y-83071197D01*
X142538895Y-83052544D01*
X142631969Y-83052544D01*
X142631969Y-83495456D01*
X142633159Y-83523238D01*
X142640700Y-83544669D01*
X142661338Y-83560742D01*
X142701025Y-83566100D01*
X142741903Y-83560742D01*
X142762938Y-83544669D01*
X142770478Y-83524031D01*
X142771669Y-83496250D01*
X142771669Y-83235106D01*
X142793850Y-83264034D01*
X142822822Y-83302134D01*
X142858584Y-83349406D01*
X142901138Y-83405851D01*
X142950483Y-83471467D01*
X143006619Y-83546256D01*
X143026463Y-83561338D01*
X143069325Y-83566100D01*
X143110203Y-83560742D01*
X143131238Y-83544669D01*
X143138778Y-83524031D01*
X143139969Y-83496250D01*
X143139969Y-83055719D01*
X143139689Y-83053337D01*
X143203469Y-83053337D01*
X143203469Y-83494663D01*
X143212994Y-83545463D01*
X143234028Y-83560345D01*
X143273319Y-83565306D01*
X143418575Y-83565306D01*
X143477040Y-83559899D01*
X143530990Y-83543677D01*
X143580426Y-83516639D01*
X143625347Y-83478788D01*
X143662678Y-83433370D01*
X143689343Y-83383637D01*
X143705342Y-83329587D01*
X143710675Y-83271222D01*
X143705218Y-83213080D01*
X143688847Y-83159700D01*
X143661562Y-83111083D01*
X143623363Y-83067228D01*
X143577970Y-83030939D01*
X143529105Y-83005018D01*
X143476767Y-82989465D01*
X143420956Y-82984281D01*
X143274113Y-82983487D01*
X143233234Y-82988845D01*
X143212200Y-83004919D01*
X143204659Y-83025556D01*
X143203469Y-83053337D01*
X143139689Y-83053337D01*
X143135206Y-83015237D01*
X143125284Y-82998569D01*
X143104647Y-82989044D01*
X143068134Y-82985075D01*
X143030431Y-82989837D01*
X143007809Y-83008491D01*
X143000269Y-83052544D01*
X143000269Y-83320831D01*
X142978397Y-83292190D01*
X142950351Y-83254950D01*
X142916131Y-83209111D01*
X142875738Y-83154673D01*
X142829172Y-83091636D01*
X142776431Y-83020000D01*
X142758175Y-82999362D01*
X142738728Y-82989441D01*
X142701025Y-82985075D01*
X142662131Y-82989837D01*
X142639509Y-83008491D01*
X142631969Y-83052544D01*
X142538895Y-83052544D01*
X142528781Y-83035875D01*
X142472072Y-83001479D01*
X142413070Y-82980842D01*
X142351775Y-82973962D01*
X142293434Y-82979246D01*
X142239063Y-82995096D01*
X142188659Y-83021513D01*
X142142225Y-83058497D01*
X142103331Y-83103369D01*
X142075550Y-83153449D01*
X142058881Y-83208739D01*
X142053325Y-83269237D01*
X141422792Y-83269237D01*
X141424799Y-83228383D01*
X141431501Y-83183205D01*
X141442598Y-83138901D01*
X141457985Y-83095898D01*
X141477512Y-83054611D01*
X141500993Y-83015436D01*
X141528200Y-82978752D01*
X141558871Y-82944911D01*
X141592712Y-82914239D01*
X141629397Y-82887032D01*
X141668571Y-82863552D01*
X141709859Y-82844025D01*
X141752861Y-82828638D01*
X141797165Y-82817540D01*
X141842343Y-82810839D01*
X141887960Y-82808598D01*
X143876040Y-82808598D01*
X143921657Y-82810839D01*
G37*
%TO.C,kibuzzard-610AE773*%
G36*
X151800217Y-78793977D02*
G01*
X151800217Y-78147203D01*
X151965581Y-78147203D01*
X151997331Y-78196018D01*
X152170369Y-78346831D01*
X151997331Y-78497643D01*
X151965581Y-78546459D01*
X151993362Y-78598053D01*
X152041781Y-78628612D01*
X152092581Y-78601625D01*
X152268000Y-78442081D01*
X152443419Y-78601625D01*
X152493425Y-78628612D01*
X152542638Y-78597656D01*
X152570419Y-78546459D01*
X152538669Y-78497643D01*
X152365631Y-78346831D01*
X152538669Y-78196018D01*
X152570419Y-78147203D01*
X152542241Y-78095212D01*
X152493425Y-78064256D01*
X152443419Y-78092037D01*
X152268000Y-78251581D01*
X152092581Y-78092037D01*
X152041781Y-78064256D01*
X151993759Y-78095609D01*
X151965581Y-78147203D01*
X151800217Y-78147203D01*
X151800217Y-77950353D01*
X151968756Y-77950353D01*
X151979869Y-77991231D01*
X152002887Y-78028140D01*
X152030669Y-78040443D01*
X152071944Y-78028537D01*
X152122479Y-78006312D01*
X152164019Y-77988320D01*
X152196562Y-77974562D01*
X152238719Y-78007635D01*
X152287932Y-78027479D01*
X152344200Y-78034093D01*
X152393413Y-78028934D01*
X152437863Y-78013456D01*
X152475566Y-77990040D01*
X152504538Y-77961068D01*
X152532760Y-77916707D01*
X152549693Y-77871463D01*
X152555338Y-77825337D01*
X152555338Y-77653887D01*
X152549980Y-77613009D01*
X152533906Y-77591975D01*
X152512872Y-77584434D01*
X152485488Y-77583243D01*
X152044956Y-77583243D01*
X152003681Y-77588006D01*
X151981655Y-77609040D01*
X151974312Y-77653093D01*
X151979670Y-77693972D01*
X151995744Y-77715006D01*
X152016778Y-77722547D01*
X152044162Y-77723737D01*
X152133856Y-77723737D01*
X152133856Y-77823750D01*
X152135444Y-77848356D01*
X152062331Y-77879224D01*
X152014441Y-77899861D01*
X151991775Y-77910268D01*
X151976297Y-77924953D01*
X151968756Y-77950353D01*
X151800217Y-77950353D01*
X151800217Y-77106023D01*
X152268000Y-77417879D01*
X152735783Y-77106023D01*
X152735783Y-78793977D01*
X151800217Y-78793977D01*
G37*
G36*
X152414844Y-77823750D02*
G01*
X152396984Y-77871375D01*
X152344200Y-77894393D01*
X152291813Y-77871375D01*
X152274350Y-77825337D01*
X152274350Y-77723737D01*
X152414844Y-77723737D01*
X152414844Y-77823750D01*
G37*
%TO.C,kibuzzard-610AE761*%
G36*
X149260217Y-78843586D02*
G01*
X149260217Y-78196812D01*
X149425581Y-78196812D01*
X149457331Y-78245628D01*
X149630369Y-78396440D01*
X149457331Y-78547253D01*
X149425581Y-78596068D01*
X149453362Y-78647662D01*
X149501781Y-78678222D01*
X149552581Y-78651234D01*
X149728000Y-78491690D01*
X149903419Y-78651234D01*
X149953425Y-78678222D01*
X150002638Y-78647265D01*
X150030419Y-78596068D01*
X149998669Y-78547253D01*
X149825631Y-78396440D01*
X149998669Y-78245628D01*
X150030419Y-78196812D01*
X150002241Y-78144822D01*
X149953425Y-78113865D01*
X149903419Y-78141647D01*
X149728000Y-78301190D01*
X149552581Y-78141647D01*
X149501781Y-78113865D01*
X149453759Y-78145218D01*
X149425581Y-78196812D01*
X149260217Y-78196812D01*
X149260217Y-77811447D01*
X149433519Y-77811447D01*
X149438281Y-77851134D01*
X149454553Y-77872168D01*
X149474794Y-77879312D01*
X149501781Y-77880503D01*
X149901038Y-77880503D01*
X149901038Y-78032109D01*
X149908181Y-78072590D01*
X149925247Y-78086084D01*
X149958188Y-78090053D01*
X149991525Y-78086084D01*
X150010178Y-78070209D01*
X150016131Y-78032903D01*
X150016131Y-77591578D01*
X150008988Y-77551097D01*
X149991922Y-77537603D01*
X149958981Y-77533634D01*
X149925644Y-77537603D01*
X149906991Y-77553478D01*
X149901038Y-77590784D01*
X149901038Y-77743184D01*
X149502575Y-77743184D01*
X149475191Y-77744375D01*
X149454553Y-77751518D01*
X149438281Y-77772156D01*
X149433519Y-77811447D01*
X149260217Y-77811447D01*
X149260217Y-77368269D01*
X149728000Y-77056414D01*
X150195783Y-77368269D01*
X150195783Y-78843586D01*
X149260217Y-78843586D01*
G37*
%TO.C,kibuzzard-610AE73D*%
G36*
X160351161Y-78989657D02*
G01*
X160344460Y-79034835D01*
X160333362Y-79079139D01*
X160317975Y-79122141D01*
X160298448Y-79163429D01*
X160274968Y-79202603D01*
X160247761Y-79239288D01*
X160217089Y-79273129D01*
X160183248Y-79303800D01*
X160146564Y-79331007D01*
X160107389Y-79354488D01*
X160066102Y-79374015D01*
X160023099Y-79389402D01*
X159978795Y-79400499D01*
X159933617Y-79407201D01*
X159888000Y-79409442D01*
X159842383Y-79407201D01*
X159797205Y-79400499D01*
X159752901Y-79389402D01*
X159709898Y-79374015D01*
X159668611Y-79354488D01*
X159629436Y-79331007D01*
X159592752Y-79303800D01*
X159558911Y-79273129D01*
X159528239Y-79239288D01*
X159501032Y-79202603D01*
X159477552Y-79163429D01*
X159458025Y-79122141D01*
X159442638Y-79079139D01*
X159431540Y-79034835D01*
X159424839Y-78989657D01*
X159422598Y-78944040D01*
X159422598Y-78341319D01*
X159596694Y-78341319D01*
X159596694Y-78486575D01*
X159602101Y-78545040D01*
X159618323Y-78598990D01*
X159645361Y-78648426D01*
X159683212Y-78693347D01*
X159728630Y-78730678D01*
X159778363Y-78757343D01*
X159832413Y-78773342D01*
X159890778Y-78778675D01*
X159948920Y-78773218D01*
X160002300Y-78756847D01*
X160050917Y-78729562D01*
X160094772Y-78691363D01*
X160131061Y-78645970D01*
X160156982Y-78597105D01*
X160172535Y-78544767D01*
X160177719Y-78488956D01*
X160178513Y-78342113D01*
X160173155Y-78301234D01*
X160157081Y-78280200D01*
X160136444Y-78272659D01*
X160108663Y-78271469D01*
X159667337Y-78271469D01*
X159616537Y-78280994D01*
X159601655Y-78302028D01*
X159596694Y-78341319D01*
X159422598Y-78341319D01*
X159422598Y-77769025D01*
X159595900Y-77769025D01*
X159601258Y-77809903D01*
X159617331Y-77830938D01*
X159637969Y-77838478D01*
X159665750Y-77839669D01*
X159926894Y-77839669D01*
X159897966Y-77861850D01*
X159859866Y-77890822D01*
X159812594Y-77926584D01*
X159756149Y-77969138D01*
X159690533Y-78018483D01*
X159615744Y-78074619D01*
X159600662Y-78094463D01*
X159595900Y-78137325D01*
X159601258Y-78178203D01*
X159617331Y-78199238D01*
X159637969Y-78206778D01*
X159665750Y-78207969D01*
X160106281Y-78207969D01*
X160146763Y-78203206D01*
X160163431Y-78193284D01*
X160172956Y-78172647D01*
X160176925Y-78136134D01*
X160172163Y-78098431D01*
X160153509Y-78075809D01*
X160109456Y-78068269D01*
X159841169Y-78068269D01*
X159869810Y-78046397D01*
X159907050Y-78018351D01*
X159952889Y-77984131D01*
X160007327Y-77943738D01*
X160070364Y-77897172D01*
X160142000Y-77844431D01*
X160162638Y-77826175D01*
X160172559Y-77806728D01*
X160176925Y-77769025D01*
X160172163Y-77730131D01*
X160153509Y-77707509D01*
X160109456Y-77699969D01*
X159666544Y-77699969D01*
X159638762Y-77701159D01*
X159617331Y-77708700D01*
X159601258Y-77729338D01*
X159595900Y-77769025D01*
X159422598Y-77769025D01*
X159422598Y-77414219D01*
X159587962Y-77414219D01*
X159592279Y-77476727D01*
X159605227Y-77530900D01*
X159626807Y-77576739D01*
X159657019Y-77614244D01*
X159705437Y-77636469D01*
X159880062Y-77636469D01*
X159924513Y-77628531D01*
X159946738Y-77576144D01*
X159946738Y-77436444D01*
X159939594Y-77398344D01*
X159922131Y-77385247D01*
X159888397Y-77381675D01*
X159855059Y-77384850D01*
X159836406Y-77398344D01*
X159830056Y-77433269D01*
X159830056Y-77495975D01*
X159743537Y-77495975D01*
X159732822Y-77458867D01*
X159729250Y-77417394D01*
X159741255Y-77360244D01*
X159777272Y-77309444D01*
X159811580Y-77282985D01*
X159850473Y-77267110D01*
X159893953Y-77261819D01*
X159956064Y-77273527D01*
X160005078Y-77308650D01*
X160036927Y-77358855D01*
X160047544Y-77415806D01*
X160042087Y-77458669D01*
X160025716Y-77495181D01*
X160003888Y-77543600D01*
X160014405Y-77570389D01*
X160045956Y-77599956D01*
X160090803Y-77618213D01*
X160126125Y-77596781D01*
X160160521Y-77540072D01*
X160181158Y-77481070D01*
X160188038Y-77419775D01*
X160182754Y-77361434D01*
X160166904Y-77307063D01*
X160140487Y-77256659D01*
X160103503Y-77210225D01*
X160058631Y-77171331D01*
X160008551Y-77143550D01*
X159953261Y-77126881D01*
X159892763Y-77121325D01*
X159831966Y-77126782D01*
X159775784Y-77143153D01*
X159724215Y-77170438D01*
X159677259Y-77208638D01*
X159638192Y-77254229D01*
X159610287Y-77303689D01*
X159593544Y-77357019D01*
X159587962Y-77414219D01*
X159422598Y-77414219D01*
X159422598Y-76955960D01*
X159424839Y-76910343D01*
X159431540Y-76865165D01*
X159442638Y-76820861D01*
X159458025Y-76777859D01*
X159477552Y-76736571D01*
X159501032Y-76697397D01*
X159528239Y-76660712D01*
X159558911Y-76626871D01*
X159592752Y-76596200D01*
X159629436Y-76568993D01*
X159668611Y-76545512D01*
X159709898Y-76525985D01*
X159752901Y-76510598D01*
X159797205Y-76499501D01*
X159842383Y-76492799D01*
X159888000Y-76490558D01*
X159933617Y-76492799D01*
X159978795Y-76499501D01*
X160023099Y-76510598D01*
X160066102Y-76525985D01*
X160107389Y-76545512D01*
X160146564Y-76568993D01*
X160183248Y-76596200D01*
X160217089Y-76626871D01*
X160247761Y-76660712D01*
X160274968Y-76697397D01*
X160298448Y-76736571D01*
X160317975Y-76777859D01*
X160333362Y-76820861D01*
X160344460Y-76865165D01*
X160351161Y-76910343D01*
X160353402Y-76955960D01*
X160353402Y-78944040D01*
X160351161Y-78989657D01*
G37*
G36*
X160037225Y-78488163D02*
G01*
X160026410Y-78544618D01*
X159993966Y-78593334D01*
X159945448Y-78626970D01*
X159886412Y-78638181D01*
X159827576Y-78626672D01*
X159779653Y-78592144D01*
X159747804Y-78543328D01*
X159737187Y-78488956D01*
X159737187Y-78411963D01*
X160037225Y-78411963D01*
X160037225Y-78488163D01*
G37*
%TO.C,kibuzzard-610AE658*%
G36*
X156894995Y-78851490D02*
G01*
X156894995Y-78474194D01*
X157060359Y-78474194D01*
X157065034Y-78521907D01*
X157079057Y-78567680D01*
X157102428Y-78611513D01*
X157128324Y-78641675D01*
X157163150Y-78665488D01*
X157205516Y-78680966D01*
X157254034Y-78686125D01*
X157301560Y-78681065D01*
X157340950Y-78665884D01*
X157371013Y-78643163D01*
X157390559Y-78615481D01*
X157403755Y-78583930D01*
X157414769Y-78549600D01*
X157423401Y-78515270D01*
X157429453Y-78483719D01*
X157447709Y-78433316D01*
X157483031Y-78413075D01*
X157517163Y-78430141D01*
X157529466Y-78473003D01*
X157519147Y-78515469D01*
X157508828Y-78527772D01*
X157500891Y-78536900D01*
X157485016Y-78578175D01*
X157494938Y-78606353D01*
X157524703Y-78633738D01*
X157568359Y-78652788D01*
X157607253Y-78628181D01*
X157622334Y-78608338D01*
X157647338Y-78553966D01*
X157656565Y-78512591D01*
X157659641Y-78467050D01*
X157653864Y-78411443D01*
X157636534Y-78364215D01*
X157607650Y-78325366D01*
X157571005Y-78296482D01*
X157530392Y-78279152D01*
X157485809Y-78273375D01*
X157438680Y-78278435D01*
X157398894Y-78293616D01*
X157367640Y-78316337D01*
X157346109Y-78344019D01*
X157330532Y-78375372D01*
X157317137Y-78409106D01*
X157306521Y-78442841D01*
X157299278Y-78474194D01*
X157281419Y-78524597D01*
X157250859Y-78544838D01*
X157217345Y-78536635D01*
X157197237Y-78512029D01*
X157190534Y-78471019D01*
X157202837Y-78432919D01*
X157228634Y-78401169D01*
X157258400Y-78365847D01*
X157268322Y-78339256D01*
X157249272Y-78297188D01*
X157219209Y-78271589D01*
X157195694Y-78263056D01*
X157150053Y-78283694D01*
X157141322Y-78290838D01*
X157117112Y-78313856D01*
X157092109Y-78349575D01*
X157069487Y-78403550D01*
X157062641Y-78437880D01*
X157060359Y-78474194D01*
X156894995Y-78474194D01*
X156894995Y-77952700D01*
X157068297Y-77952700D01*
X157073059Y-77992388D01*
X157089331Y-78013422D01*
X157109572Y-78020566D01*
X157136559Y-78021756D01*
X157535816Y-78021756D01*
X157535816Y-78173363D01*
X157542959Y-78213844D01*
X157560025Y-78227338D01*
X157592966Y-78231306D01*
X157626303Y-78227338D01*
X157644956Y-78211463D01*
X157650909Y-78174156D01*
X157650909Y-77732831D01*
X157643766Y-77692350D01*
X157626700Y-77678856D01*
X157593759Y-77674887D01*
X157560422Y-77678856D01*
X157541769Y-77694731D01*
X157535816Y-77732037D01*
X157535816Y-77884437D01*
X157137353Y-77884437D01*
X157109969Y-77885628D01*
X157089331Y-77892772D01*
X157073059Y-77913409D01*
X157068297Y-77952700D01*
X156894995Y-77952700D01*
X156894995Y-77560984D01*
X157063534Y-77560984D01*
X157074647Y-77601862D01*
X157097666Y-77638772D01*
X157125447Y-77651075D01*
X157166722Y-77639169D01*
X157217257Y-77616944D01*
X157258797Y-77598952D01*
X157291341Y-77585194D01*
X157333498Y-77618267D01*
X157382710Y-77638110D01*
X157438978Y-77644725D01*
X157488191Y-77639566D01*
X157532641Y-77624087D01*
X157570344Y-77600672D01*
X157599316Y-77571700D01*
X157627538Y-77527338D01*
X157644471Y-77482094D01*
X157650116Y-77435969D01*
X157650116Y-77264519D01*
X157644758Y-77223641D01*
X157628684Y-77202606D01*
X157607650Y-77195066D01*
X157580266Y-77193875D01*
X157139734Y-77193875D01*
X157098459Y-77198637D01*
X157076433Y-77219672D01*
X157069091Y-77263725D01*
X157074448Y-77304603D01*
X157090522Y-77325637D01*
X157111556Y-77333178D01*
X157138941Y-77334369D01*
X157228634Y-77334369D01*
X157228634Y-77434381D01*
X157230222Y-77458987D01*
X157157109Y-77489856D01*
X157109219Y-77510493D01*
X157086553Y-77520900D01*
X157071075Y-77535584D01*
X157063534Y-77560984D01*
X156894995Y-77560984D01*
X156894995Y-77028510D01*
X157825005Y-77028510D01*
X157825005Y-78851490D01*
X156894995Y-78851490D01*
G37*
G36*
X157509622Y-77434381D02*
G01*
X157491763Y-77482006D01*
X157438978Y-77505025D01*
X157386591Y-77482006D01*
X157369128Y-77435969D01*
X157369128Y-77334369D01*
X157509622Y-77334369D01*
X157509622Y-77434381D01*
G37*
%TO.C,kibuzzard-610AE595*%
G36*
X146734995Y-78876493D02*
G01*
X146734995Y-78499197D01*
X146900359Y-78499197D01*
X146905034Y-78546910D01*
X146919057Y-78592683D01*
X146942428Y-78636516D01*
X146968324Y-78666678D01*
X147003150Y-78690491D01*
X147045516Y-78705969D01*
X147094034Y-78711128D01*
X147141560Y-78706068D01*
X147180950Y-78690888D01*
X147211013Y-78668166D01*
X147230559Y-78640484D01*
X147243755Y-78608933D01*
X147254769Y-78574603D01*
X147263401Y-78540273D01*
X147269453Y-78508722D01*
X147287709Y-78458319D01*
X147323031Y-78438078D01*
X147357163Y-78455144D01*
X147369466Y-78498006D01*
X147359147Y-78540472D01*
X147348828Y-78552775D01*
X147340891Y-78561903D01*
X147325016Y-78603178D01*
X147334938Y-78631356D01*
X147364703Y-78658741D01*
X147408359Y-78677791D01*
X147447253Y-78653184D01*
X147462334Y-78633341D01*
X147487338Y-78578969D01*
X147496565Y-78537595D01*
X147499641Y-78492053D01*
X147493864Y-78436447D01*
X147476534Y-78389218D01*
X147447650Y-78350369D01*
X147411005Y-78321485D01*
X147370392Y-78304155D01*
X147325809Y-78298378D01*
X147278680Y-78303438D01*
X147238894Y-78318619D01*
X147207640Y-78341340D01*
X147186109Y-78369022D01*
X147170532Y-78400375D01*
X147157137Y-78434109D01*
X147146521Y-78467844D01*
X147139278Y-78499197D01*
X147121419Y-78549600D01*
X147090859Y-78569841D01*
X147057345Y-78561639D01*
X147037237Y-78537032D01*
X147030534Y-78496022D01*
X147042837Y-78457922D01*
X147068634Y-78426172D01*
X147098400Y-78390850D01*
X147108322Y-78364259D01*
X147089272Y-78322191D01*
X147059209Y-78296592D01*
X147035694Y-78288059D01*
X146990053Y-78308697D01*
X146981322Y-78315841D01*
X146957112Y-78338859D01*
X146932109Y-78374578D01*
X146909487Y-78428553D01*
X146902641Y-78462883D01*
X146900359Y-78499197D01*
X146734995Y-78499197D01*
X146734995Y-77977703D01*
X146908297Y-77977703D01*
X146913059Y-78017391D01*
X146929331Y-78038425D01*
X146949572Y-78045569D01*
X146976559Y-78046759D01*
X147375816Y-78046759D01*
X147375816Y-78198366D01*
X147382959Y-78238847D01*
X147400025Y-78252341D01*
X147432966Y-78256309D01*
X147466303Y-78252341D01*
X147484956Y-78236466D01*
X147490909Y-78199159D01*
X147490909Y-77757834D01*
X147483766Y-77717353D01*
X147466700Y-77703859D01*
X147433759Y-77699891D01*
X147400422Y-77703859D01*
X147381769Y-77719734D01*
X147375816Y-77757041D01*
X147375816Y-77909441D01*
X146977353Y-77909441D01*
X146949969Y-77910631D01*
X146929331Y-77917775D01*
X146913059Y-77938412D01*
X146908297Y-77977703D01*
X146734995Y-77977703D01*
X146734995Y-77472481D01*
X146900359Y-77472481D01*
X146903534Y-77510879D01*
X146913059Y-77550666D01*
X146933697Y-77604244D01*
X146950366Y-77631628D01*
X146970209Y-77656631D01*
X146997991Y-77667347D01*
X147042441Y-77649884D01*
X147075778Y-77622302D01*
X147086891Y-77596703D01*
X147071016Y-77558603D01*
X147060697Y-77544316D01*
X147047997Y-77512962D01*
X147041647Y-77466528D01*
X147050378Y-77415133D01*
X147076572Y-77365722D01*
X147126578Y-77325241D01*
X147160412Y-77313334D01*
X147198412Y-77309366D01*
X147236413Y-77313334D01*
X147270247Y-77325241D01*
X147319459Y-77364928D01*
X147346248Y-77415331D01*
X147355178Y-77466528D01*
X147348431Y-77516534D01*
X147328191Y-77555428D01*
X147310728Y-77595909D01*
X147321444Y-77622103D01*
X147353591Y-77651472D01*
X147397644Y-77668141D01*
X147435347Y-77647503D01*
X147449634Y-77625278D01*
X147460747Y-77606228D01*
X147484163Y-77547887D01*
X147492795Y-77509688D01*
X147495672Y-77472084D01*
X147490909Y-77419785D01*
X147476622Y-77367662D01*
X147452809Y-77315716D01*
X147427905Y-77276723D01*
X147397644Y-77242294D01*
X147360338Y-77213024D01*
X147314300Y-77189509D01*
X147261020Y-77174031D01*
X147201984Y-77168872D01*
X147142354Y-77174130D01*
X147087287Y-77189906D01*
X147039266Y-77213818D01*
X147000769Y-77243484D01*
X146969614Y-77278112D01*
X146943619Y-77316906D01*
X146923577Y-77357189D01*
X146910281Y-77396281D01*
X146902840Y-77434580D01*
X146900359Y-77472481D01*
X146734995Y-77472481D01*
X146734995Y-77003507D01*
X147665005Y-77003507D01*
X147665005Y-78876493D01*
X146734995Y-78876493D01*
G37*
D12*
%TO.C,R13*%
X163027500Y-81137258D02*
X163027500Y-80662742D01*
X164072500Y-81137258D02*
X164072500Y-80662742D01*
%TO.C,C3*%
X155310000Y-83040580D02*
X155310000Y-82759420D01*
X154290000Y-83040580D02*
X154290000Y-82759420D01*
%TO.C,C6*%
X179659420Y-87910000D02*
X179940580Y-87910000D01*
X179659420Y-86890000D02*
X179940580Y-86890000D01*
%TO.C,C45*%
X179907836Y-85760000D02*
X179692164Y-85760000D01*
X179907836Y-85040000D02*
X179692164Y-85040000D01*
%TO.C,R14*%
X165822500Y-81137258D02*
X165822500Y-80662742D01*
X164777500Y-81137258D02*
X164777500Y-80662742D01*
D13*
%TO.C,U2*%
X155850000Y-91200000D02*
X155250000Y-91200000D01*
X149750000Y-91200000D02*
X150350000Y-91200000D01*
X150350000Y-85100000D02*
X149750000Y-85700000D01*
X155850000Y-91200000D02*
X155850000Y-90600000D01*
X155850000Y-85100000D02*
X155850000Y-85700000D01*
X149750000Y-91200000D02*
X149750000Y-90600000D01*
X155250000Y-85100000D02*
X155850000Y-85100000D01*
D10*
X149050000Y-86150000D02*
G75*
G03*
X149050000Y-86150000I-150000J0D01*
G01*
D12*
%TO.C,D2*%
X152815000Y-98135000D02*
X154285000Y-98135000D01*
X154285000Y-98135000D02*
X154285000Y-95850000D01*
X152815000Y-95850000D02*
X152815000Y-98135000D01*
%TO.C,R3*%
X152322500Y-93637258D02*
X152322500Y-93162742D01*
X151277500Y-93637258D02*
X151277500Y-93162742D01*
%TO.C,R7*%
X146287258Y-92672500D02*
X145812742Y-92672500D01*
X146287258Y-91627500D02*
X145812742Y-91627500D01*
D14*
%TO.C,U9*%
X177050000Y-90150000D02*
X176550000Y-90650000D01*
X177050000Y-84150000D02*
X177050000Y-90150000D01*
X170550000Y-84150000D02*
X177050000Y-84150000D01*
X176550000Y-90650000D02*
X170550000Y-90650000D01*
X170550000Y-90650000D02*
X170550000Y-84150000D01*
D15*
X177400000Y-90900000D02*
G75*
G03*
X177400000Y-90900000I-100000J0D01*
G01*
D12*
%TO.C,R6*%
X146287258Y-89877500D02*
X145812742Y-89877500D01*
X146287258Y-90922500D02*
X145812742Y-90922500D01*
%TO.C,C23*%
X158907836Y-85540000D02*
X158692164Y-85540000D01*
X158907836Y-86260000D02*
X158692164Y-86260000D01*
%TO.C,R10*%
X147822500Y-81387258D02*
X147822500Y-80912742D01*
X146777500Y-81387258D02*
X146777500Y-80912742D01*
%TO.C,C19*%
X153560000Y-81265580D02*
X153560000Y-80984420D01*
X152540000Y-81265580D02*
X152540000Y-80984420D01*
%TO.C,C15*%
X170660000Y-104611252D02*
X170660000Y-103188748D01*
X167940000Y-104611252D02*
X167940000Y-103188748D01*
%TO.C,C2*%
X154940000Y-92792164D02*
X154940000Y-93007836D01*
X155660000Y-92792164D02*
X155660000Y-93007836D01*
%TO.C,C27*%
X156310000Y-99540580D02*
X156310000Y-99259420D01*
X155290000Y-99540580D02*
X155290000Y-99259420D01*
%TO.C,C9*%
X149810000Y-98040580D02*
X149810000Y-97759420D01*
X148790000Y-98040580D02*
X148790000Y-97759420D01*
%TO.C,C8*%
X172440580Y-91390000D02*
X172159420Y-91390000D01*
X172440580Y-92410000D02*
X172159420Y-92410000D01*
%TO.C,C38*%
X168692164Y-87260000D02*
X168907836Y-87260000D01*
X168692164Y-86540000D02*
X168907836Y-86540000D01*
%TO.C,R5*%
X146287258Y-89172500D02*
X145812742Y-89172500D01*
X146287258Y-88127500D02*
X145812742Y-88127500D01*
%TO.C,R18*%
X162277500Y-96662742D02*
X162277500Y-97137258D01*
X163322500Y-96662742D02*
X163322500Y-97137258D01*
%TO.C,C44*%
X168310000Y-84540580D02*
X168310000Y-84259420D01*
X167290000Y-84540580D02*
X167290000Y-84259420D01*
%TO.C,R4*%
X154072500Y-93637258D02*
X154072500Y-93162742D01*
X153027500Y-93637258D02*
X153027500Y-93162742D01*
%TO.C,D1*%
X152535000Y-98135000D02*
X152535000Y-95850000D01*
X151065000Y-98135000D02*
X152535000Y-98135000D01*
X151065000Y-95850000D02*
X151065000Y-98135000D01*
%TO.C,R21*%
X175027500Y-104162742D02*
X175027500Y-104637258D01*
X176072500Y-104162742D02*
X176072500Y-104637258D01*
%TO.C,J1*%
X147155000Y-114305000D02*
X157435000Y-114305000D01*
X147155000Y-107904000D02*
X157435000Y-107904000D01*
X146915000Y-114365000D02*
X146915000Y-115105000D01*
X156110000Y-109136000D02*
X156063000Y-109182000D01*
X147155000Y-104944000D02*
X157435000Y-104944000D01*
X147155000Y-104944000D02*
X147155000Y-114865000D01*
X153608000Y-111228000D02*
X153561000Y-111274000D01*
X157435000Y-104944000D02*
X157435000Y-114865000D01*
X146915000Y-115105000D02*
X147415000Y-115105000D01*
X153801000Y-111444000D02*
X153766000Y-111479000D01*
X155905000Y-108930000D02*
X155870000Y-108966000D01*
X147155000Y-114865000D02*
X157435000Y-114865000D01*
X147155000Y-112805000D02*
X157435000Y-112805000D01*
X148219574Y-110888042D02*
G75*
G02*
X148220000Y-109521000I1535426J683042D01*
G01*
X151290426Y-109521958D02*
G75*
G02*
X151290000Y-110889000I-1535426J-683042D01*
G01*
X149071958Y-108669574D02*
G75*
G02*
X150439000Y-108670000I683042J-1535426D01*
G01*
X149783805Y-111885253D02*
G75*
G02*
X149071000Y-111740000I-28805J1680253D01*
G01*
X150438318Y-111739756D02*
G75*
G02*
X149755000Y-111885000I-683318J1534756D01*
G01*
X156515000Y-110205000D02*
G75*
G03*
X156515000Y-110205000I-1680000J0D01*
G01*
%TO.C,C1*%
X149540000Y-93259420D02*
X149540000Y-93540580D01*
X150560000Y-93259420D02*
X150560000Y-93540580D01*
%TO.C,U1*%
X145860000Y-102400000D02*
X145860000Y-103200000D01*
X142740000Y-102400000D02*
X142740000Y-104200000D01*
X145860000Y-102400000D02*
X145860000Y-101600000D01*
X142740000Y-102400000D02*
X142740000Y-101600000D01*
%TO.C,C7*%
X156690000Y-85757836D02*
X156690000Y-85542164D01*
X157410000Y-85757836D02*
X157410000Y-85542164D01*
%TO.C,R1*%
X161277500Y-81137258D02*
X161277500Y-80662742D01*
X162322500Y-81137258D02*
X162322500Y-80662742D01*
%TO.C,R36*%
X178527500Y-89412742D02*
X178527500Y-89887258D01*
X179572500Y-89412742D02*
X179572500Y-89887258D01*
%TO.C,R11*%
X149572500Y-81387258D02*
X149572500Y-80912742D01*
X148527500Y-81387258D02*
X148527500Y-80912742D01*
%TO.C,R17*%
X155277500Y-96137258D02*
X155277500Y-95662742D01*
X156322500Y-96137258D02*
X156322500Y-95662742D01*
%TO.C,R2*%
X166527500Y-81137258D02*
X166527500Y-80662742D01*
X167572500Y-81137258D02*
X167572500Y-80662742D01*
%TO.C,L8*%
X165810000Y-84237221D02*
X165810000Y-84562779D01*
X164790000Y-84237221D02*
X164790000Y-84562779D01*
%TO.C,C21*%
X159907836Y-91260000D02*
X159692164Y-91260000D01*
X159907836Y-90540000D02*
X159692164Y-90540000D01*
%TO.C,C10*%
X157790000Y-83040580D02*
X157790000Y-82759420D01*
X158810000Y-83040580D02*
X158810000Y-82759420D01*
%TO.C,L1*%
X171910000Y-107400000D02*
X171910000Y-111400000D01*
X167690000Y-111400000D02*
X167690000Y-107400000D01*
%TO.C,J2*%
X170565000Y-100070000D02*
X170565000Y-100135000D01*
X167035000Y-93665000D02*
X170565000Y-93665000D01*
X167035000Y-93665000D02*
X167035000Y-93730000D01*
X170565000Y-93665000D02*
X170565000Y-93730000D01*
X165710000Y-93730000D02*
X167035000Y-93730000D01*
X167035000Y-100135000D02*
X170565000Y-100135000D01*
X167035000Y-100070000D02*
X167035000Y-100135000D01*
%TO.C,R19*%
X166822500Y-103162742D02*
X166822500Y-103637258D01*
X165777500Y-103162742D02*
X165777500Y-103637258D01*
%TO.C,C16*%
X174160000Y-104611252D02*
X174160000Y-103188748D01*
X171440000Y-104611252D02*
X171440000Y-103188748D01*
%TO.C,R37*%
X181072500Y-89887258D02*
X181072500Y-89412742D01*
X180027500Y-89887258D02*
X180027500Y-89412742D01*
%TO.C,J6*%
X182877500Y-85400000D02*
X182377500Y-85150000D01*
X182377500Y-85150000D02*
X182377500Y-85650000D01*
X183427500Y-84560000D02*
X183427500Y-83450000D01*
X183427500Y-87350000D02*
X183427500Y-86240000D01*
X187137500Y-87350000D02*
X187137500Y-86240000D01*
X182377500Y-85650000D02*
X182877500Y-85400000D01*
X187137500Y-84560000D02*
X187137500Y-83450000D01*
%TO.C,R20*%
X165322500Y-103637258D02*
X165322500Y-103162742D01*
X164277500Y-103637258D02*
X164277500Y-103162742D01*
%TO.C,C39*%
X168692164Y-88540000D02*
X168907836Y-88540000D01*
X168692164Y-89260000D02*
X168907836Y-89260000D01*
%TO.C,R9*%
X145027500Y-81387258D02*
X145027500Y-80912742D01*
X146072500Y-81387258D02*
X146072500Y-80912742D01*
%TO.C,U6*%
X164300000Y-86290000D02*
X161375000Y-86290000D01*
X164300000Y-89510000D02*
X165800000Y-89510000D01*
X164300000Y-89510000D02*
X162800000Y-89510000D01*
X164300000Y-86290000D02*
X165800000Y-86290000D01*
%TO.C,C18*%
X144038748Y-99635000D02*
X144561252Y-99635000D01*
X144038748Y-98165000D02*
X144561252Y-98165000D01*
%TO.C,U4*%
X157500000Y-95700000D02*
X161100000Y-95700000D01*
X161100000Y-98670000D02*
X161350000Y-98670000D01*
X161100000Y-95700000D02*
X161100000Y-96130000D01*
X157500000Y-98670000D02*
X157500000Y-98130000D01*
X161350000Y-100670000D02*
X161100000Y-100670000D01*
X161100000Y-98130000D02*
X161100000Y-98670000D01*
X161100000Y-101100000D02*
X157500000Y-101100000D01*
X157500000Y-96130000D02*
X157500000Y-95700000D01*
X161100000Y-100670000D02*
X161100000Y-101100000D01*
X157500000Y-101100000D02*
X157500000Y-100670000D01*
%TO.C,R22*%
X175027500Y-100912742D02*
X175027500Y-101387258D01*
X176072500Y-100912742D02*
X176072500Y-101387258D01*
%TO.C,C22*%
X159310000Y-93540580D02*
X159310000Y-93259420D01*
X158290000Y-93540580D02*
X158290000Y-93259420D01*
%TO.C,L3*%
X144137221Y-96390000D02*
X144462779Y-96390000D01*
X144137221Y-97410000D02*
X144462779Y-97410000D01*
%TO.C,R8*%
X146287258Y-94422500D02*
X145812742Y-94422500D01*
X146287258Y-93377500D02*
X145812742Y-93377500D01*
%TO.C,L2*%
X175462779Y-93910000D02*
X175137221Y-93910000D01*
X175462779Y-92890000D02*
X175137221Y-92890000D01*
%TO.C,R27*%
X162277500Y-99662742D02*
X162277500Y-100137258D01*
X163322500Y-99662742D02*
X163322500Y-100137258D01*
%TO.C,U3*%
X161740000Y-109400000D02*
X161740000Y-107450000D01*
X166860000Y-109400000D02*
X166860000Y-111350000D01*
X161740000Y-109400000D02*
X161740000Y-112850000D01*
X166860000Y-109400000D02*
X166860000Y-107450000D01*
%TO.C,C17*%
X144561252Y-106635000D02*
X144038748Y-106635000D01*
X144561252Y-105165000D02*
X144038748Y-105165000D01*
%TO.C,C25*%
X159692164Y-87540000D02*
X159907836Y-87540000D01*
X159692164Y-88260000D02*
X159907836Y-88260000D01*
%TO.C,U8*%
X172100000Y-78200000D02*
X175500000Y-78200000D01*
X172100000Y-78200000D02*
X172100000Y-81600000D01*
X175500000Y-81600000D02*
X172100000Y-81600000D01*
X175500000Y-78200000D02*
X175500000Y-81600000D01*
D16*
X175900000Y-81100000D02*
G75*
G03*
X175900000Y-81100000I-100000J0D01*
G01*
D12*
%TO.C,C4*%
X159565000Y-111638748D02*
X159565000Y-112161252D01*
X161035000Y-111638748D02*
X161035000Y-112161252D01*
%TO.C,C24*%
X158692164Y-89260000D02*
X158907836Y-89260000D01*
X158692164Y-88540000D02*
X158907836Y-88540000D01*
%TO.C,R16*%
X159527500Y-80662742D02*
X159527500Y-81137258D01*
X160572500Y-80662742D02*
X160572500Y-81137258D01*
%TO.C,C26*%
X163810000Y-84540580D02*
X163810000Y-84259420D01*
X162790000Y-84540580D02*
X162790000Y-84259420D01*
%TO.C,U5*%
X161800000Y-91840000D02*
X160125000Y-91840000D01*
X161800000Y-94960000D02*
X161150000Y-94960000D01*
X161800000Y-94960000D02*
X162450000Y-94960000D01*
X161800000Y-91840000D02*
X162450000Y-91840000D01*
%TO.C,C14*%
X163810000Y-103540580D02*
X163810000Y-103259420D01*
X162790000Y-103540580D02*
X162790000Y-103259420D01*
%TO.C,C5*%
X157060000Y-83040580D02*
X157060000Y-82759420D01*
X156040000Y-83040580D02*
X156040000Y-82759420D01*
%TO.C,C12*%
X159790000Y-106759420D02*
X159790000Y-107040580D01*
X160810000Y-106759420D02*
X160810000Y-107040580D01*
%TO.C,R12*%
X150277500Y-81387258D02*
X150277500Y-80912742D01*
X151322500Y-81387258D02*
X151322500Y-80912742D01*
%TO.C,C11*%
X168790000Y-84540580D02*
X168790000Y-84259420D01*
X169810000Y-84540580D02*
X169810000Y-84259420D01*
%TO.C,C47*%
X147810000Y-98040580D02*
X147810000Y-97759420D01*
X146790000Y-98040580D02*
X146790000Y-97759420D01*
%TO.C,C13*%
X172440580Y-113410000D02*
X172159420Y-113410000D01*
X172440580Y-112390000D02*
X172159420Y-112390000D01*
%TO.C,C46*%
X175159420Y-92410000D02*
X175440580Y-92410000D01*
X175159420Y-91390000D02*
X175440580Y-91390000D01*
%TO.C,R28*%
X179562742Y-93172500D02*
X180037258Y-93172500D01*
X179562742Y-92127500D02*
X180037258Y-92127500D01*
%TO.C,R15*%
X161277500Y-103162742D02*
X161277500Y-103637258D01*
X162322500Y-103162742D02*
X162322500Y-103637258D01*
%TO.C,R26*%
X179562742Y-94127500D02*
X180037258Y-94127500D01*
X179562742Y-95172500D02*
X180037258Y-95172500D01*
%TD*%
M02*
