%TF.GenerationSoftware,KiCad,Pcbnew,5.99.0-unknown-c5e195bdff~131~ubuntu20.04.1*%
%TF.CreationDate,2021-08-04T16:13:57-04:00*%
%TF.ProjectId,openlst-hw,6f70656e-6c73-4742-9d68-772e6b696361,rev?*%
%TF.SameCoordinates,Original*%
%TF.FileFunction,Paste,Top*%
%TF.FilePolarity,Positive*%
%FSLAX46Y46*%
G04 Gerber Fmt 4.6, Leading zero omitted, Abs format (unit mm)*
G04 Created by KiCad (PCBNEW 5.99.0-unknown-c5e195bdff~131~ubuntu20.04.1) date 2021-08-04 16:13:57*
%MOMM*%
%LPD*%
G01*
G04 APERTURE LIST*
G04 Aperture macros list*
%AMRoundRect*
0 Rectangle with rounded corners*
0 $1 Rounding radius*
0 $2 $3 $4 $5 $6 $7 $8 $9 X,Y pos of 4 corners*
0 Add a 4 corners polygon primitive as box body*
4,1,4,$2,$3,$4,$5,$6,$7,$8,$9,$2,$3,0*
0 Add four circle primitives for the rounded corners*
1,1,$1+$1,$2,$3*
1,1,$1+$1,$4,$5*
1,1,$1+$1,$6,$7*
1,1,$1+$1,$8,$9*
0 Add four rect primitives between the rounded corners*
20,1,$1+$1,$2,$3,$4,$5,0*
20,1,$1+$1,$4,$5,$6,$7,0*
20,1,$1+$1,$6,$7,$8,$9,0*
20,1,$1+$1,$8,$9,$2,$3,0*%
G04 Aperture macros list end*
%ADD10C,0.200000*%
%ADD11RoundRect,0.200000X0.275000X-0.200000X0.275000X0.200000X-0.275000X0.200000X-0.275000X-0.200000X0*%
%ADD12RoundRect,0.225000X0.250000X-0.225000X0.250000X0.225000X-0.250000X0.225000X-0.250000X-0.225000X0*%
%ADD13RoundRect,0.225000X-0.225000X-0.250000X0.225000X-0.250000X0.225000X0.250000X-0.225000X0.250000X0*%
%ADD14RoundRect,0.140000X0.140000X0.170000X-0.140000X0.170000X-0.140000X-0.170000X0.140000X-0.170000X0*%
%ADD15R,0.750000X0.280000*%
%ADD16R,0.280000X0.750000*%
%ADD17RoundRect,0.218750X0.256250X-0.218750X0.256250X0.218750X-0.256250X0.218750X-0.256250X-0.218750X0*%
%ADD18RoundRect,0.200000X0.200000X0.275000X-0.200000X0.275000X-0.200000X-0.275000X0.200000X-0.275000X0*%
%ADD19R,0.550000X0.500000*%
%ADD20R,0.550000X0.400000*%
%ADD21R,0.400000X0.550000*%
%ADD22R,0.600000X3.500000*%
%ADD23R,3.500000X0.600000*%
%ADD24RoundRect,0.250000X1.100000X-0.325000X1.100000X0.325000X-1.100000X0.325000X-1.100000X-0.325000X0*%
%ADD25RoundRect,0.140000X-0.170000X0.140000X-0.170000X-0.140000X0.170000X-0.140000X0.170000X0.140000X0*%
%ADD26RoundRect,0.225000X0.225000X0.250000X-0.225000X0.250000X-0.225000X-0.250000X0.225000X-0.250000X0*%
%ADD27RoundRect,0.140000X-0.140000X-0.170000X0.140000X-0.170000X0.140000X0.170000X-0.140000X0.170000X0*%
%ADD28RoundRect,0.200000X-0.275000X0.200000X-0.275000X-0.200000X0.275000X-0.200000X0.275000X0.200000X0*%
%ADD29RoundRect,0.225000X-0.250000X0.225000X-0.250000X-0.225000X0.250000X-0.225000X0.250000X0.225000X0*%
%ADD30RoundRect,0.150000X0.150000X-0.512500X0.150000X0.512500X-0.150000X0.512500X-0.150000X-0.512500X0*%
%ADD31RoundRect,0.140000X0.170000X-0.140000X0.170000X0.140000X-0.170000X0.140000X-0.170000X-0.140000X0*%
%ADD32RoundRect,0.147500X0.147500X0.172500X-0.147500X0.172500X-0.147500X-0.172500X0.147500X-0.172500X0*%
%ADD33RoundRect,0.218750X-0.256250X0.218750X-0.256250X-0.218750X0.256250X-0.218750X0.256250X0.218750X0*%
%ADD34R,3.600000X1.150000*%
%ADD35R,2.400000X0.740000*%
%ADD36R,3.600000X1.270000*%
%ADD37R,4.200000X1.350000*%
%ADD38RoundRect,0.100000X-0.712500X-0.100000X0.712500X-0.100000X0.712500X0.100000X-0.712500X0.100000X0*%
%ADD39RoundRect,0.250000X-0.250000X-0.475000X0.250000X-0.475000X0.250000X0.475000X-0.250000X0.475000X0*%
%ADD40R,1.500000X1.600000*%
%ADD41RoundRect,0.218750X-0.218750X-0.256250X0.218750X-0.256250X0.218750X0.256250X-0.218750X0.256250X0*%
%ADD42RoundRect,0.218750X0.218750X0.256250X-0.218750X0.256250X-0.218750X-0.256250X0.218750X-0.256250X0*%
%ADD43RoundRect,0.250000X0.455000X-0.280000X0.455000X0.280000X-0.455000X0.280000X-0.455000X-0.280000X0*%
%ADD44RoundRect,0.200500X0.200500X-0.552000X0.200500X0.552000X-0.200500X0.552000X-0.200500X-0.552000X0*%
%ADD45RoundRect,0.250000X0.250000X0.475000X-0.250000X0.475000X-0.250000X-0.475000X0.250000X-0.475000X0*%
%ADD46R,1.700000X0.810000*%
%ADD47R,1.050000X0.810000*%
%ADD48RoundRect,0.250000X-0.475000X0.250000X-0.475000X-0.250000X0.475000X-0.250000X0.475000X0.250000X0*%
%ADD49RoundRect,0.150000X-0.587500X-0.150000X0.587500X-0.150000X0.587500X0.150000X-0.587500X0.150000X0*%
%ADD50RoundRect,0.200000X-0.200000X-0.275000X0.200000X-0.275000X0.200000X0.275000X-0.200000X0.275000X0*%
%ADD51RoundRect,0.147500X-0.147500X-0.172500X0.147500X-0.172500X0.147500X0.172500X-0.147500X0.172500X0*%
G04 APERTURE END LIST*
D10*
%TO.C,U2*%
X153650000Y-87400000D02*
G75*
G03*
X153650000Y-87400000I-100000J0D01*
G01*
X152150000Y-87400000D02*
G75*
G03*
X152150000Y-87400000I-100000J0D01*
G01*
X153650000Y-88900000D02*
G75*
G03*
X153650000Y-88900000I-100000J0D01*
G01*
X152150000Y-88900000D02*
G75*
G03*
X152150000Y-88900000I-100000J0D01*
G01*
X152150000Y-86650000D02*
G75*
G03*
X152150000Y-86650000I-100000J0D01*
G01*
X152150000Y-88150000D02*
G75*
G03*
X152150000Y-88150000I-100000J0D01*
G01*
X152900000Y-88900000D02*
G75*
G03*
X152900000Y-88900000I-100000J0D01*
G01*
X151400000Y-87400000D02*
G75*
G03*
X151400000Y-87400000I-100000J0D01*
G01*
X152150000Y-89650000D02*
G75*
G03*
X152150000Y-89650000I-100000J0D01*
G01*
X151400000Y-88900000D02*
G75*
G03*
X151400000Y-88900000I-100000J0D01*
G01*
X152900000Y-87400000D02*
G75*
G03*
X152900000Y-87400000I-100000J0D01*
G01*
X153650000Y-86650000D02*
G75*
G03*
X153650000Y-86650000I-100000J0D01*
G01*
X153650000Y-89650000D02*
G75*
G03*
X153650000Y-89650000I-100000J0D01*
G01*
X153650000Y-88150000D02*
G75*
G03*
X153650000Y-88150000I-100000J0D01*
G01*
X154400000Y-87400000D02*
G75*
G03*
X154400000Y-87400000I-100000J0D01*
G01*
X154400000Y-88900000D02*
G75*
G03*
X154400000Y-88900000I-100000J0D01*
G01*
%TD*%
D11*
%TO.C,R13*%
X163550000Y-81725000D03*
X163550000Y-80075000D03*
%TD*%
D12*
%TO.C,C3*%
X154800000Y-83675000D03*
X154800000Y-82125000D03*
%TD*%
D13*
%TO.C,C6*%
X179025000Y-87400000D03*
X180575000Y-87400000D03*
%TD*%
D14*
%TO.C,C45*%
X180280000Y-85400000D03*
X179320000Y-85400000D03*
%TD*%
D11*
%TO.C,R14*%
X165300000Y-81725000D03*
X165300000Y-80075000D03*
%TD*%
D15*
%TO.C,U2*%
X150020000Y-86150000D03*
X150020000Y-86650000D03*
X150020000Y-87150000D03*
X150020000Y-87650000D03*
X150020000Y-88150000D03*
X150020000Y-88650000D03*
X150020000Y-89150000D03*
X150020000Y-89650000D03*
X150020000Y-90150000D03*
D16*
X150800000Y-90930000D03*
X151300000Y-90930000D03*
X151800000Y-90930000D03*
X152300000Y-90930000D03*
X152800000Y-90930000D03*
X153300000Y-90930000D03*
X153800000Y-90930000D03*
X154300000Y-90930000D03*
X154800000Y-90930000D03*
D15*
X155580000Y-90150000D03*
X155580000Y-89650000D03*
X155580000Y-89150000D03*
X155580000Y-88650000D03*
X155580000Y-88150000D03*
X155580000Y-87650000D03*
X155580000Y-87150000D03*
X155580000Y-86650000D03*
X155580000Y-86150000D03*
D16*
X154800000Y-85370000D03*
X154300000Y-85370000D03*
X153800000Y-85370000D03*
X153300000Y-85370000D03*
X152800000Y-85370000D03*
X152300000Y-85370000D03*
X151800000Y-85370000D03*
X151300000Y-85370000D03*
X150800000Y-85370000D03*
%TD*%
D17*
%TO.C,D2*%
X153550000Y-97437500D03*
X153550000Y-95862500D03*
%TD*%
D11*
%TO.C,R3*%
X151800000Y-94225000D03*
X151800000Y-92575000D03*
%TD*%
D18*
%TO.C,R7*%
X146875000Y-92150000D03*
X145225000Y-92150000D03*
%TD*%
D19*
%TO.C,U9*%
X176425000Y-90050000D03*
D20*
X176425000Y-89275000D03*
X176425000Y-88525000D03*
X176425000Y-87775000D03*
X176425000Y-87025000D03*
X176425000Y-86275000D03*
X176425000Y-85525000D03*
D19*
X176425000Y-84750000D03*
D21*
X175613000Y-84775000D03*
X174888000Y-84775000D03*
X174163000Y-84775000D03*
X173437000Y-84775000D03*
X172712000Y-84775000D03*
X171987000Y-84775000D03*
D19*
X171175000Y-84750000D03*
D20*
X171175000Y-85525000D03*
X171175000Y-86275000D03*
X171175000Y-87025000D03*
X171175000Y-87775000D03*
X171175000Y-88525000D03*
X171175000Y-89275000D03*
D19*
X171175000Y-90050000D03*
D21*
X171987000Y-90025000D03*
X172712000Y-90025000D03*
X173437000Y-90025000D03*
X174163000Y-90025000D03*
X174888000Y-90025000D03*
X175613000Y-90025000D03*
D22*
X174550000Y-87400000D03*
D23*
X173800000Y-86650000D03*
X173800000Y-88150000D03*
D22*
X173050000Y-87400000D03*
%TD*%
D18*
%TO.C,R6*%
X146875000Y-90400000D03*
X145225000Y-90400000D03*
%TD*%
D14*
%TO.C,C23*%
X159280000Y-85900000D03*
X158320000Y-85900000D03*
%TD*%
D11*
%TO.C,R10*%
X147300000Y-81975000D03*
X147300000Y-80325000D03*
%TD*%
D12*
%TO.C,C19*%
X153050000Y-81900000D03*
X153050000Y-80350000D03*
%TD*%
D24*
%TO.C,C15*%
X169300000Y-105375000D03*
X169300000Y-102425000D03*
%TD*%
D25*
%TO.C,C2*%
X155300000Y-92420000D03*
X155300000Y-93380000D03*
%TD*%
D12*
%TO.C,C27*%
X155800000Y-100175000D03*
X155800000Y-98625000D03*
%TD*%
%TO.C,C9*%
X149300000Y-98675000D03*
X149300000Y-97125000D03*
%TD*%
D26*
%TO.C,C8*%
X173075000Y-91900000D03*
X171525000Y-91900000D03*
%TD*%
D27*
%TO.C,C38*%
X168320000Y-86900000D03*
X169280000Y-86900000D03*
%TD*%
D18*
%TO.C,R5*%
X146875000Y-88650000D03*
X145225000Y-88650000D03*
%TD*%
D28*
%TO.C,R18*%
X162800000Y-96075000D03*
X162800000Y-97725000D03*
%TD*%
D12*
%TO.C,C44*%
X167800000Y-85175000D03*
X167800000Y-83625000D03*
%TD*%
D11*
%TO.C,R4*%
X153550000Y-94225000D03*
X153550000Y-92575000D03*
%TD*%
D17*
%TO.C,D1*%
X151800000Y-97437500D03*
X151800000Y-95862500D03*
%TD*%
D28*
%TO.C,R21*%
X175550000Y-103575000D03*
X175550000Y-105225000D03*
%TD*%
D29*
%TO.C,C1*%
X150050000Y-92625000D03*
X150050000Y-94175000D03*
%TD*%
D30*
%TO.C,U1*%
X143350000Y-103537500D03*
X144300000Y-103537500D03*
X145250000Y-103537500D03*
X145250000Y-101262500D03*
X143350000Y-101262500D03*
%TD*%
D31*
%TO.C,C7*%
X157050000Y-86130000D03*
X157050000Y-85170000D03*
%TD*%
D32*
%TO.C,L5*%
X159285000Y-89900000D03*
X158315000Y-89900000D03*
%TD*%
D11*
%TO.C,R1*%
X161800000Y-81725000D03*
X161800000Y-80075000D03*
%TD*%
D28*
%TO.C,R36*%
X179050000Y-88825000D03*
X179050000Y-90475000D03*
%TD*%
D11*
%TO.C,R11*%
X149050000Y-81975000D03*
X149050000Y-80325000D03*
%TD*%
%TO.C,R17*%
X155800000Y-96725000D03*
X155800000Y-95075000D03*
%TD*%
%TO.C,R2*%
X167050000Y-81725000D03*
X167050000Y-80075000D03*
%TD*%
D33*
%TO.C,L8*%
X165300000Y-83612500D03*
X165300000Y-85187500D03*
%TD*%
D14*
%TO.C,C21*%
X160280000Y-90900000D03*
X159320000Y-90900000D03*
%TD*%
D12*
%TO.C,C10*%
X158300000Y-83675000D03*
X158300000Y-82125000D03*
%TD*%
D34*
%TO.C,L1*%
X169800000Y-110875000D03*
X169800000Y-107925000D03*
%TD*%
D35*
%TO.C,J2*%
X166850000Y-94360000D03*
X170750000Y-94360000D03*
X166850000Y-95630000D03*
X170750000Y-95630000D03*
X166850000Y-96900000D03*
X170750000Y-96900000D03*
X166850000Y-98170000D03*
X170750000Y-98170000D03*
X166850000Y-99440000D03*
X170750000Y-99440000D03*
%TD*%
D28*
%TO.C,R19*%
X166300000Y-102575000D03*
X166300000Y-104225000D03*
%TD*%
D24*
%TO.C,C16*%
X172800000Y-105375000D03*
X172800000Y-102425000D03*
%TD*%
D11*
%TO.C,R37*%
X180550000Y-90475000D03*
X180550000Y-88825000D03*
%TD*%
D36*
%TO.C,J6*%
X185337500Y-85400000D03*
D37*
X185137500Y-82575000D03*
X185137500Y-88225000D03*
%TD*%
D11*
%TO.C,R20*%
X164800000Y-104225000D03*
X164800000Y-102575000D03*
%TD*%
D27*
%TO.C,C39*%
X168320000Y-88900000D03*
X169280000Y-88900000D03*
%TD*%
D11*
%TO.C,R9*%
X145550000Y-81975000D03*
X145550000Y-80325000D03*
%TD*%
D38*
%TO.C,U6*%
X162187500Y-86925000D03*
X162187500Y-87575000D03*
X162187500Y-88225000D03*
X162187500Y-88875000D03*
X166412500Y-88875000D03*
X166412500Y-88225000D03*
X166412500Y-87575000D03*
X166412500Y-86925000D03*
%TD*%
D39*
%TO.C,C18*%
X143350000Y-98900000D03*
X145250000Y-98900000D03*
%TD*%
D40*
%TO.C,U4*%
X160400000Y-99670000D03*
X160400000Y-97130000D03*
X158200000Y-97130000D03*
X158200000Y-99670000D03*
%TD*%
D28*
%TO.C,R22*%
X175550000Y-100325000D03*
X175550000Y-101975000D03*
%TD*%
D12*
%TO.C,C22*%
X158800000Y-94175000D03*
X158800000Y-92625000D03*
%TD*%
D41*
%TO.C,L3*%
X143512500Y-96900000D03*
X145087500Y-96900000D03*
%TD*%
D18*
%TO.C,R8*%
X146875000Y-93900000D03*
X145225000Y-93900000D03*
%TD*%
D42*
%TO.C,L2*%
X176087500Y-93400000D03*
X174512500Y-93400000D03*
%TD*%
D28*
%TO.C,R27*%
X162800000Y-99075000D03*
X162800000Y-100725000D03*
%TD*%
D43*
%TO.C,U3*%
X163425000Y-110055000D03*
X163425000Y-108745000D03*
X165175000Y-110055000D03*
X165175000Y-108745000D03*
D44*
X162395000Y-111897500D03*
X163665000Y-111897500D03*
X164935000Y-111897500D03*
X166205000Y-111897500D03*
X166205000Y-106902500D03*
X164935000Y-106902500D03*
X163665000Y-106902500D03*
X162395000Y-106902500D03*
%TD*%
D45*
%TO.C,C17*%
X145250000Y-105900000D03*
X143350000Y-105900000D03*
%TD*%
D27*
%TO.C,C25*%
X159320000Y-87900000D03*
X160280000Y-87900000D03*
%TD*%
D46*
%TO.C,U8*%
X174550000Y-81095000D03*
D47*
X174875000Y-79900000D03*
X174875000Y-78705000D03*
X172725000Y-78705000D03*
X172725000Y-79900000D03*
X172725000Y-81095000D03*
%TD*%
D48*
%TO.C,C4*%
X160300000Y-110950000D03*
X160300000Y-112850000D03*
%TD*%
D27*
%TO.C,C24*%
X158320000Y-88900000D03*
X159280000Y-88900000D03*
%TD*%
D28*
%TO.C,R16*%
X160050000Y-80075000D03*
X160050000Y-81725000D03*
%TD*%
D12*
%TO.C,C26*%
X163300000Y-85175000D03*
X163300000Y-83625000D03*
%TD*%
D49*
%TO.C,U5*%
X160862500Y-92450000D03*
X160862500Y-94350000D03*
X162737500Y-93400000D03*
%TD*%
D12*
%TO.C,C14*%
X163300000Y-104175000D03*
X163300000Y-102625000D03*
%TD*%
%TO.C,C5*%
X156550000Y-83675000D03*
X156550000Y-82125000D03*
%TD*%
D29*
%TO.C,C12*%
X160300000Y-106125000D03*
X160300000Y-107675000D03*
%TD*%
D11*
%TO.C,R12*%
X150800000Y-81975000D03*
X150800000Y-80325000D03*
%TD*%
D12*
%TO.C,C11*%
X169300000Y-85175000D03*
X169300000Y-83625000D03*
%TD*%
%TO.C,C47*%
X147300000Y-98675000D03*
X147300000Y-97125000D03*
%TD*%
D26*
%TO.C,C13*%
X173075000Y-112900000D03*
X171525000Y-112900000D03*
%TD*%
D13*
%TO.C,C46*%
X174525000Y-91900000D03*
X176075000Y-91900000D03*
%TD*%
D50*
%TO.C,R28*%
X178975000Y-92650000D03*
X180625000Y-92650000D03*
%TD*%
D51*
%TO.C,L6*%
X158315000Y-86900000D03*
X159285000Y-86900000D03*
%TD*%
D28*
%TO.C,R15*%
X161800000Y-102575000D03*
X161800000Y-104225000D03*
%TD*%
D50*
%TO.C,R26*%
X178975000Y-94650000D03*
X180625000Y-94650000D03*
%TD*%
M02*
